%TF.GenerationSoftware,KiCad,Pcbnew,(5.1.10)-1*%
%TF.CreationDate,2022-01-17T02:00:54+07:00*%
%TF.ProjectId,Fan_controller_v3,46616e5f-636f-46e7-9472-6f6c6c65725f,rev?*%
%TF.SameCoordinates,Original*%
%TF.FileFunction,Copper,L2,Inr*%
%TF.FilePolarity,Positive*%
%FSLAX46Y46*%
G04 Gerber Fmt 4.6, Leading zero omitted, Abs format (unit mm)*
G04 Created by KiCad (PCBNEW (5.1.10)-1) date 2022-01-17 02:00:54*
%MOMM*%
%LPD*%
G01*
G04 APERTURE LIST*
%TA.AperFunction,ComponentPad*%
%ADD10O,1.000000X1.000000*%
%TD*%
%TA.AperFunction,ComponentPad*%
%ADD11R,1.000000X1.000000*%
%TD*%
%TA.AperFunction,ComponentPad*%
%ADD12C,2.000000*%
%TD*%
%TA.AperFunction,ComponentPad*%
%ADD13R,1.600000X1.600000*%
%TD*%
%TA.AperFunction,ComponentPad*%
%ADD14C,1.600000*%
%TD*%
%TA.AperFunction,ComponentPad*%
%ADD15R,1.700000X1.700000*%
%TD*%
%TA.AperFunction,ComponentPad*%
%ADD16O,1.700000X1.700000*%
%TD*%
%TA.AperFunction,ComponentPad*%
%ADD17O,1.750000X2.250000*%
%TD*%
%TA.AperFunction,ComponentPad*%
%ADD18R,1.750000X2.250000*%
%TD*%
%TA.AperFunction,ViaPad*%
%ADD19C,0.800000*%
%TD*%
%TA.AperFunction,ViaPad*%
%ADD20C,1.200000*%
%TD*%
%TA.AperFunction,Conductor*%
%ADD21C,0.254000*%
%TD*%
%TA.AperFunction,Conductor*%
%ADD22C,0.020000*%
%TD*%
G04 APERTURE END LIST*
D10*
%TO.N,/scl0*%
%TO.C,J2*%
X76251000Y-79680000D03*
%TO.N,/sda0*%
X76251000Y-80950000D03*
%TO.N,GND1*%
X77521000Y-79680000D03*
X77521000Y-80950000D03*
%TO.N,+5P*%
X78791000Y-79680000D03*
D11*
X78791000Y-80950000D03*
%TD*%
D12*
%TO.N,Net-(C5-Pad2)*%
%TO.C,C5*%
X115113000Y-95682000D03*
%TO.N,Net-(C5-Pad1)*%
X92613000Y-95682000D03*
%TD*%
D13*
%TO.N,+5VP*%
%TO.C,K2*%
X110287000Y-80442000D03*
D14*
X110287000Y-82982000D03*
%TO.N,Net-(J1-Pad3)*%
X110287000Y-88062000D03*
%TO.N,Net-(C7-Pad1)*%
X110287000Y-93142000D03*
%TO.N,Net-(K2-Pad8)*%
X110287000Y-98222000D03*
X117907000Y-98222000D03*
%TO.N,Net-(C5-Pad2)*%
X117907000Y-93142000D03*
%TO.N,Net-(C7-Pad1)*%
X117907000Y-88062000D03*
%TO.N,Net-(C12-Pad2)*%
X117907000Y-82982000D03*
%TO.N,Net-(C11-Pad2)*%
X117907000Y-80442000D03*
%TD*%
D15*
%TO.N,Net-(J1-Pad1)*%
%TO.C,J1*%
X101270000Y-97968000D03*
D16*
%TO.N,N/C*%
X103810000Y-97968000D03*
%TO.N,Net-(J1-Pad3)*%
X106350000Y-97968000D03*
%TD*%
D12*
%TO.N,GND2*%
%TO.C,TP1*%
X81140500Y-91618000D03*
%TD*%
D17*
%TO.N,Net-(C6-Pad2)*%
%TO.C,PS1*%
X85141000Y-98349000D03*
%TO.N,GND2*%
X82601000Y-98349000D03*
%TO.N,+5P*%
X80061000Y-98349000D03*
D18*
%TO.N,GND1*%
X77521000Y-98349000D03*
%TD*%
D14*
%TO.N,Net-(C3-Pad2)*%
%TO.C,K1*%
X97333000Y-80442000D03*
%TO.N,Net-(C4-Pad2)*%
X97333000Y-82982000D03*
%TO.N,Net-(J1-Pad1)*%
X97333000Y-88062000D03*
%TO.N,Net-(C5-Pad2)*%
X97333000Y-93142000D03*
%TO.N,Net-(K1-Pad8)*%
X97333000Y-98222000D03*
X89713000Y-98222000D03*
%TO.N,Net-(C7-Pad1)*%
X89713000Y-93142000D03*
%TO.N,Net-(C5-Pad1)*%
X89713000Y-88062000D03*
%TO.N,+5VP*%
X89713000Y-82982000D03*
D13*
X89713000Y-80442000D03*
%TD*%
D12*
%TO.N,Net-(C5-Pad2)*%
%TO.C,C7*%
X123241000Y-96545000D03*
%TO.N,Net-(C7-Pad1)*%
X123241000Y-79045000D03*
%TD*%
D19*
%TO.N,Net-(C3-Pad2)*%
X91491000Y-78029000D03*
%TO.N,Net-(C3-Pad1)*%
X91491000Y-76378000D03*
%TO.N,Net-(C4-Pad2)*%
X89967000Y-78029000D03*
%TO.N,Net-(C4-Pad1)*%
X89967000Y-76378000D03*
%TO.N,GND1*%
X84480000Y-77775000D03*
%TO.N,+5P*%
X81077000Y-88443000D03*
%TO.N,Net-(C11-Pad1)*%
X118669000Y-76378000D03*
%TO.N,GND2*%
X104445000Y-79299000D03*
X99619000Y-75997000D03*
X109017000Y-75997000D03*
X98095000Y-76060500D03*
X110541000Y-76060500D03*
X83972032Y-86919000D03*
%TO.N,+5VP*%
X105995000Y-79299000D03*
D20*
X85395006Y-89840000D03*
D19*
%TO.N,/scl0*%
X77521000Y-83932000D03*
X75997000Y-87236500D03*
%TO.N,/sda0*%
X75997000Y-88697000D03*
%TO.N,/I2C_SDA*%
X105615886Y-81416284D03*
X85903000Y-83236000D03*
%TO.N,/I2C_SCL*%
X105615814Y-82515892D03*
X84633000Y-83236000D03*
%TO.N,/K1_set*%
X101396992Y-80188000D03*
%TO.N,/K2_set*%
X107833000Y-82941000D03*
%TO.N,/K2_rst*%
X108255000Y-79161000D03*
X103497423Y-82130732D03*
D20*
%TO.N,Net-(C6-Pad2)*%
X83871000Y-94158000D03*
D19*
%TO.N,Net-(C11-Pad2)*%
X118669000Y-78029000D03*
%TO.N,Net-(C12-Pad2)*%
X117145000Y-78029000D03*
%TO.N,Net-(C12-Pad1)*%
X117145000Y-76378000D03*
%TD*%
D21*
%TO.N,+5VP*%
X97597141Y-75453858D02*
X97488358Y-75562641D01*
X97402887Y-75690558D01*
X97344013Y-75832691D01*
X97314000Y-75983578D01*
X97314000Y-76137422D01*
X97344013Y-76288309D01*
X97402887Y-76430442D01*
X97488358Y-76558359D01*
X97597141Y-76667142D01*
X97725058Y-76752613D01*
X97867191Y-76811487D01*
X98018078Y-76841500D01*
X98171922Y-76841500D01*
X98322809Y-76811487D01*
X98464942Y-76752613D01*
X98592859Y-76667142D01*
X98701642Y-76558359D01*
X98787113Y-76430442D01*
X98845987Y-76288309D01*
X98863315Y-76201192D01*
X98868013Y-76224809D01*
X98926887Y-76366942D01*
X99012358Y-76494859D01*
X99121141Y-76603642D01*
X99249058Y-76689113D01*
X99391191Y-76747987D01*
X99542078Y-76778000D01*
X99695922Y-76778000D01*
X99846809Y-76747987D01*
X99988942Y-76689113D01*
X100116859Y-76603642D01*
X100225642Y-76494859D01*
X100311113Y-76366942D01*
X100369987Y-76224809D01*
X100400000Y-76073922D01*
X100400000Y-75920078D01*
X100369987Y-75769191D01*
X100311113Y-75627058D01*
X100225642Y-75499141D01*
X100157501Y-75431000D01*
X108478499Y-75431000D01*
X108410358Y-75499141D01*
X108324887Y-75627058D01*
X108266013Y-75769191D01*
X108236000Y-75920078D01*
X108236000Y-76073922D01*
X108266013Y-76224809D01*
X108324887Y-76366942D01*
X108410358Y-76494859D01*
X108519141Y-76603642D01*
X108647058Y-76689113D01*
X108789191Y-76747987D01*
X108940078Y-76778000D01*
X109093922Y-76778000D01*
X109244809Y-76747987D01*
X109386942Y-76689113D01*
X109514859Y-76603642D01*
X109623642Y-76494859D01*
X109709113Y-76366942D01*
X109767987Y-76224809D01*
X109772685Y-76201192D01*
X109790013Y-76288309D01*
X109848887Y-76430442D01*
X109934358Y-76558359D01*
X110043141Y-76667142D01*
X110171058Y-76752613D01*
X110313191Y-76811487D01*
X110464078Y-76841500D01*
X110617922Y-76841500D01*
X110768809Y-76811487D01*
X110910942Y-76752613D01*
X111038859Y-76667142D01*
X111147642Y-76558359D01*
X111233113Y-76430442D01*
X111291987Y-76288309D01*
X111322000Y-76137422D01*
X111322000Y-75983578D01*
X111291987Y-75832691D01*
X111233113Y-75690558D01*
X111147642Y-75562641D01*
X111038859Y-75453858D01*
X111004649Y-75431000D01*
X119177000Y-75431000D01*
X119177000Y-75781499D01*
X119166859Y-75771358D01*
X119038942Y-75685887D01*
X118896809Y-75627013D01*
X118745922Y-75597000D01*
X118592078Y-75597000D01*
X118441191Y-75627013D01*
X118299058Y-75685887D01*
X118171141Y-75771358D01*
X118062358Y-75880141D01*
X117976887Y-76008058D01*
X117918013Y-76150191D01*
X117907000Y-76205558D01*
X117895987Y-76150191D01*
X117837113Y-76008058D01*
X117751642Y-75880141D01*
X117642859Y-75771358D01*
X117514942Y-75685887D01*
X117372809Y-75627013D01*
X117221922Y-75597000D01*
X117068078Y-75597000D01*
X116917191Y-75627013D01*
X116775058Y-75685887D01*
X116647141Y-75771358D01*
X116538358Y-75880141D01*
X116452887Y-76008058D01*
X116394013Y-76150191D01*
X116364000Y-76301078D01*
X116364000Y-76454922D01*
X116394013Y-76605809D01*
X116452887Y-76747942D01*
X116538358Y-76875859D01*
X116647141Y-76984642D01*
X116775058Y-77070113D01*
X116917191Y-77128987D01*
X117068078Y-77159000D01*
X117221922Y-77159000D01*
X117372809Y-77128987D01*
X117514942Y-77070113D01*
X117642859Y-76984642D01*
X117751642Y-76875859D01*
X117837113Y-76747942D01*
X117895987Y-76605809D01*
X117907000Y-76550442D01*
X117918013Y-76605809D01*
X117976887Y-76747942D01*
X118062358Y-76875859D01*
X118171141Y-76984642D01*
X118299058Y-77070113D01*
X118441191Y-77128987D01*
X118592078Y-77159000D01*
X118745922Y-77159000D01*
X118896809Y-77128987D01*
X119038942Y-77070113D01*
X119166859Y-76984642D01*
X119177000Y-76974501D01*
X119177000Y-77061289D01*
X119136693Y-77137096D01*
X119121817Y-77173188D01*
X119106419Y-77209114D01*
X119104640Y-77214863D01*
X119062954Y-77352931D01*
X119038942Y-77336887D01*
X118896809Y-77278013D01*
X118745922Y-77248000D01*
X118592078Y-77248000D01*
X118441191Y-77278013D01*
X118299058Y-77336887D01*
X118171141Y-77422358D01*
X118062358Y-77531141D01*
X117976887Y-77659058D01*
X117918013Y-77801191D01*
X117907000Y-77856558D01*
X117895987Y-77801191D01*
X117837113Y-77659058D01*
X117751642Y-77531141D01*
X117642859Y-77422358D01*
X117514942Y-77336887D01*
X117372809Y-77278013D01*
X117221922Y-77248000D01*
X117068078Y-77248000D01*
X116917191Y-77278013D01*
X116775058Y-77336887D01*
X116647141Y-77422358D01*
X116538358Y-77531141D01*
X116452887Y-77659058D01*
X116394013Y-77801191D01*
X116364000Y-77952078D01*
X116364000Y-78105922D01*
X116394013Y-78256809D01*
X116452887Y-78398942D01*
X116538358Y-78526859D01*
X116647141Y-78635642D01*
X116775058Y-78721113D01*
X116917191Y-78779987D01*
X117068078Y-78810000D01*
X117221922Y-78810000D01*
X117372809Y-78779987D01*
X117514942Y-78721113D01*
X117642859Y-78635642D01*
X117751642Y-78526859D01*
X117837113Y-78398942D01*
X117895987Y-78256809D01*
X117907000Y-78201442D01*
X117918013Y-78256809D01*
X117976887Y-78398942D01*
X118062358Y-78526859D01*
X118171141Y-78635642D01*
X118299058Y-78721113D01*
X118441191Y-78779987D01*
X118592078Y-78810000D01*
X118745922Y-78810000D01*
X118896809Y-78779987D01*
X119000001Y-78737243D01*
X119000000Y-79994636D01*
X118953588Y-79882587D01*
X118824342Y-79689157D01*
X118659843Y-79524658D01*
X118466413Y-79395412D01*
X118251485Y-79306386D01*
X118023318Y-79261000D01*
X117790682Y-79261000D01*
X117562515Y-79306386D01*
X117347587Y-79395412D01*
X117154157Y-79524658D01*
X116989658Y-79689157D01*
X116860412Y-79882587D01*
X116771386Y-80097515D01*
X116726000Y-80325682D01*
X116726000Y-80558318D01*
X116771386Y-80786485D01*
X116860412Y-81001413D01*
X116989658Y-81194843D01*
X117154157Y-81359342D01*
X117347587Y-81488588D01*
X117562515Y-81577614D01*
X117790682Y-81623000D01*
X118023318Y-81623000D01*
X118251485Y-81577614D01*
X118466413Y-81488588D01*
X118659843Y-81359342D01*
X118824342Y-81194843D01*
X118953588Y-81001413D01*
X119000000Y-80889364D01*
X119000000Y-80971167D01*
X119002168Y-80993178D01*
X119002168Y-81008017D01*
X119002797Y-81014002D01*
X119027663Y-81235686D01*
X119035784Y-81273890D01*
X119043372Y-81312215D01*
X119045152Y-81317964D01*
X119112603Y-81530597D01*
X119127989Y-81566495D01*
X119142878Y-81602619D01*
X119145735Y-81607903D01*
X119145739Y-81607912D01*
X119145744Y-81607919D01*
X119177000Y-81664774D01*
X119177000Y-84036899D01*
X119015584Y-83988164D01*
X118977298Y-83980583D01*
X118939053Y-83972454D01*
X118933070Y-83971825D01*
X118933068Y-83971825D01*
X118711058Y-83950057D01*
X118711052Y-83950057D01*
X118690168Y-83948000D01*
X118587021Y-83948000D01*
X118659843Y-83899342D01*
X118824342Y-83734843D01*
X118953588Y-83541413D01*
X119042614Y-83326485D01*
X119088000Y-83098318D01*
X119088000Y-82865682D01*
X119042614Y-82637515D01*
X118953588Y-82422587D01*
X118824342Y-82229157D01*
X118659843Y-82064658D01*
X118466413Y-81935412D01*
X118251485Y-81846386D01*
X118023318Y-81801000D01*
X117790682Y-81801000D01*
X117562515Y-81846386D01*
X117347587Y-81935412D01*
X117154157Y-82064658D01*
X116989658Y-82229157D01*
X116860412Y-82422587D01*
X116771386Y-82637515D01*
X116726000Y-82865682D01*
X116726000Y-83098318D01*
X116771386Y-83326485D01*
X116860412Y-83541413D01*
X116989658Y-83734843D01*
X117154157Y-83899342D01*
X117226979Y-83948000D01*
X117123832Y-83948000D01*
X117101821Y-83950168D01*
X117086983Y-83950168D01*
X117080997Y-83950797D01*
X116859314Y-83975663D01*
X116821110Y-83983784D01*
X116782785Y-83991372D01*
X116777038Y-83993151D01*
X116777032Y-83993153D01*
X116564403Y-84060603D01*
X116528493Y-84075994D01*
X116492381Y-84090878D01*
X116487097Y-84093735D01*
X116487088Y-84093739D01*
X116487081Y-84093744D01*
X116291607Y-84201207D01*
X116259402Y-84223258D01*
X116226838Y-84244894D01*
X116222201Y-84248730D01*
X116218304Y-84252000D01*
X111973586Y-84252000D01*
X111953932Y-84235971D01*
X111921433Y-84214378D01*
X111889162Y-84192282D01*
X111883868Y-84189420D01*
X111686904Y-84084693D01*
X111650812Y-84069817D01*
X111614886Y-84054419D01*
X111609137Y-84052640D01*
X111609139Y-84052640D01*
X111609131Y-84052638D01*
X111395584Y-83988164D01*
X111357298Y-83980583D01*
X111319053Y-83972454D01*
X111313070Y-83971825D01*
X111313068Y-83971825D01*
X111091058Y-83950057D01*
X111091052Y-83950057D01*
X111070168Y-83948000D01*
X110945238Y-83948000D01*
X111012199Y-83797708D01*
X110287000Y-83072510D01*
X109561801Y-83797708D01*
X109628762Y-83948000D01*
X109503832Y-83948000D01*
X109481821Y-83950168D01*
X109466983Y-83950168D01*
X109460997Y-83950797D01*
X109239314Y-83975663D01*
X109201110Y-83983784D01*
X109162785Y-83991372D01*
X109157038Y-83993151D01*
X109157032Y-83993153D01*
X108944403Y-84060603D01*
X108908493Y-84075994D01*
X108872381Y-84090878D01*
X108867097Y-84093735D01*
X108867088Y-84093739D01*
X108867081Y-84093744D01*
X108671607Y-84201207D01*
X108639402Y-84223258D01*
X108606838Y-84244894D01*
X108602201Y-84248730D01*
X108598304Y-84252000D01*
X99019586Y-84252000D01*
X98999932Y-84235971D01*
X98967433Y-84214378D01*
X98935162Y-84192282D01*
X98929868Y-84189420D01*
X98732904Y-84084693D01*
X98696812Y-84069817D01*
X98660886Y-84054419D01*
X98655137Y-84052640D01*
X98655139Y-84052640D01*
X98655131Y-84052638D01*
X98441584Y-83988164D01*
X98403298Y-83980583D01*
X98365053Y-83972454D01*
X98359070Y-83971825D01*
X98359068Y-83971825D01*
X98137058Y-83950057D01*
X98137052Y-83950057D01*
X98116168Y-83948000D01*
X98013021Y-83948000D01*
X98085843Y-83899342D01*
X98250342Y-83734843D01*
X98379588Y-83541413D01*
X98468614Y-83326485D01*
X98514000Y-83098318D01*
X98514000Y-82865682D01*
X98468614Y-82637515D01*
X98379588Y-82422587D01*
X98250342Y-82229157D01*
X98085843Y-82064658D01*
X98069608Y-82053810D01*
X102716423Y-82053810D01*
X102716423Y-82207654D01*
X102746436Y-82358541D01*
X102805310Y-82500674D01*
X102890781Y-82628591D01*
X102999564Y-82737374D01*
X103127481Y-82822845D01*
X103269614Y-82881719D01*
X103420501Y-82911732D01*
X103574345Y-82911732D01*
X103725232Y-82881719D01*
X103867365Y-82822845D01*
X103995282Y-82737374D01*
X104104065Y-82628591D01*
X104189536Y-82500674D01*
X104215094Y-82438970D01*
X104834814Y-82438970D01*
X104834814Y-82592814D01*
X104864827Y-82743701D01*
X104923701Y-82885834D01*
X105009172Y-83013751D01*
X105117955Y-83122534D01*
X105245872Y-83208005D01*
X105388005Y-83266879D01*
X105538892Y-83296892D01*
X105692736Y-83296892D01*
X105843623Y-83266879D01*
X105985756Y-83208005D01*
X106113673Y-83122534D01*
X106222456Y-83013751D01*
X106307927Y-82885834D01*
X106316938Y-82864078D01*
X107052000Y-82864078D01*
X107052000Y-83017922D01*
X107082013Y-83168809D01*
X107140887Y-83310942D01*
X107226358Y-83438859D01*
X107335141Y-83547642D01*
X107463058Y-83633113D01*
X107605191Y-83691987D01*
X107756078Y-83722000D01*
X107909922Y-83722000D01*
X108060809Y-83691987D01*
X108202942Y-83633113D01*
X108330859Y-83547642D01*
X108439642Y-83438859D01*
X108525113Y-83310942D01*
X108583987Y-83168809D01*
X108614000Y-83017922D01*
X108614000Y-82999429D01*
X109100414Y-82999429D01*
X109126614Y-83230586D01*
X109197408Y-83452189D01*
X109290707Y-83626741D01*
X109471292Y-83707199D01*
X110196490Y-82982000D01*
X110377510Y-82982000D01*
X111102708Y-83707199D01*
X111283293Y-83626741D01*
X111389932Y-83419985D01*
X111454186Y-83196398D01*
X111473586Y-82964571D01*
X111447386Y-82733414D01*
X111376592Y-82511811D01*
X111283293Y-82337259D01*
X111102708Y-82256801D01*
X110377510Y-82982000D01*
X110196490Y-82982000D01*
X109471292Y-82256801D01*
X109290707Y-82337259D01*
X109184068Y-82544015D01*
X109119814Y-82767602D01*
X109100414Y-82999429D01*
X108614000Y-82999429D01*
X108614000Y-82864078D01*
X108583987Y-82713191D01*
X108525113Y-82571058D01*
X108439642Y-82443141D01*
X108330859Y-82334358D01*
X108202942Y-82248887D01*
X108060809Y-82190013D01*
X107941555Y-82166292D01*
X109561801Y-82166292D01*
X110287000Y-82891490D01*
X111012199Y-82166292D01*
X110931741Y-81985707D01*
X110724985Y-81879068D01*
X110501398Y-81814814D01*
X110269571Y-81795414D01*
X110038414Y-81821614D01*
X109816811Y-81892408D01*
X109642259Y-81985707D01*
X109561801Y-82166292D01*
X107941555Y-82166292D01*
X107909922Y-82160000D01*
X107756078Y-82160000D01*
X107605191Y-82190013D01*
X107463058Y-82248887D01*
X107335141Y-82334358D01*
X107226358Y-82443141D01*
X107140887Y-82571058D01*
X107082013Y-82713191D01*
X107052000Y-82864078D01*
X106316938Y-82864078D01*
X106366801Y-82743701D01*
X106396814Y-82592814D01*
X106396814Y-82438970D01*
X106366801Y-82288083D01*
X106307927Y-82145950D01*
X106222456Y-82018033D01*
X106170547Y-81966124D01*
X106222528Y-81914143D01*
X106307999Y-81786226D01*
X106366873Y-81644093D01*
X106396886Y-81493206D01*
X106396886Y-81339362D01*
X106377520Y-81242000D01*
X109104157Y-81242000D01*
X109111513Y-81316689D01*
X109133299Y-81388508D01*
X109168678Y-81454696D01*
X109216289Y-81512711D01*
X109274304Y-81560322D01*
X109340492Y-81595701D01*
X109412311Y-81617487D01*
X109487000Y-81624843D01*
X110127750Y-81623000D01*
X110223000Y-81527750D01*
X110223000Y-80506000D01*
X110351000Y-80506000D01*
X110351000Y-81527750D01*
X110446250Y-81623000D01*
X111087000Y-81624843D01*
X111161689Y-81617487D01*
X111233508Y-81595701D01*
X111299696Y-81560322D01*
X111357711Y-81512711D01*
X111405322Y-81454696D01*
X111440701Y-81388508D01*
X111462487Y-81316689D01*
X111469843Y-81242000D01*
X111468000Y-80601250D01*
X111372750Y-80506000D01*
X110351000Y-80506000D01*
X110223000Y-80506000D01*
X109201250Y-80506000D01*
X109106000Y-80601250D01*
X109104157Y-81242000D01*
X106377520Y-81242000D01*
X106366873Y-81188475D01*
X106307999Y-81046342D01*
X106222528Y-80918425D01*
X106113745Y-80809642D01*
X105985828Y-80724171D01*
X105843695Y-80665297D01*
X105692808Y-80635284D01*
X105538964Y-80635284D01*
X105388077Y-80665297D01*
X105245944Y-80724171D01*
X105118027Y-80809642D01*
X105009244Y-80918425D01*
X104923773Y-81046342D01*
X104864899Y-81188475D01*
X104834886Y-81339362D01*
X104834886Y-81493206D01*
X104864899Y-81644093D01*
X104923773Y-81786226D01*
X105009244Y-81914143D01*
X105061153Y-81966052D01*
X105009172Y-82018033D01*
X104923701Y-82145950D01*
X104864827Y-82288083D01*
X104834814Y-82438970D01*
X104215094Y-82438970D01*
X104248410Y-82358541D01*
X104278423Y-82207654D01*
X104278423Y-82053810D01*
X104248410Y-81902923D01*
X104189536Y-81760790D01*
X104104065Y-81632873D01*
X103995282Y-81524090D01*
X103867365Y-81438619D01*
X103725232Y-81379745D01*
X103574345Y-81349732D01*
X103420501Y-81349732D01*
X103269614Y-81379745D01*
X103127481Y-81438619D01*
X102999564Y-81524090D01*
X102890781Y-81632873D01*
X102805310Y-81760790D01*
X102746436Y-81902923D01*
X102716423Y-82053810D01*
X98069608Y-82053810D01*
X97892413Y-81935412D01*
X97677485Y-81846386D01*
X97449318Y-81801000D01*
X97216682Y-81801000D01*
X96988515Y-81846386D01*
X96773587Y-81935412D01*
X96580157Y-82064658D01*
X96415658Y-82229157D01*
X96286412Y-82422587D01*
X96197386Y-82637515D01*
X96152000Y-82865682D01*
X96152000Y-83098318D01*
X96197386Y-83326485D01*
X96286412Y-83541413D01*
X96415658Y-83734843D01*
X96580157Y-83899342D01*
X96652979Y-83948000D01*
X96549832Y-83948000D01*
X96527821Y-83950168D01*
X96512983Y-83950168D01*
X96506997Y-83950797D01*
X96285314Y-83975663D01*
X96247110Y-83983784D01*
X96208785Y-83991372D01*
X96203038Y-83993151D01*
X96203032Y-83993153D01*
X95990403Y-84060603D01*
X95954493Y-84075994D01*
X95918381Y-84090878D01*
X95913097Y-84093735D01*
X95913088Y-84093739D01*
X95913081Y-84093744D01*
X95717607Y-84201207D01*
X95685402Y-84223258D01*
X95652838Y-84244894D01*
X95648201Y-84248730D01*
X95644304Y-84252000D01*
X91399586Y-84252000D01*
X91379932Y-84235971D01*
X91347433Y-84214378D01*
X91315162Y-84192282D01*
X91309868Y-84189420D01*
X91112904Y-84084693D01*
X91076812Y-84069817D01*
X91040886Y-84054419D01*
X91035137Y-84052640D01*
X91035139Y-84052640D01*
X91035131Y-84052638D01*
X90821584Y-83988164D01*
X90783298Y-83980583D01*
X90745053Y-83972454D01*
X90739070Y-83971825D01*
X90739068Y-83971825D01*
X90517058Y-83950057D01*
X90517052Y-83950057D01*
X90496168Y-83948000D01*
X90371238Y-83948000D01*
X90438199Y-83797708D01*
X89713000Y-83072510D01*
X88987801Y-83797708D01*
X89054762Y-83948000D01*
X88929832Y-83948000D01*
X88907821Y-83950168D01*
X88892983Y-83950168D01*
X88886997Y-83950797D01*
X88665314Y-83975663D01*
X88627110Y-83983784D01*
X88588785Y-83991372D01*
X88583038Y-83993151D01*
X88583032Y-83993153D01*
X88370403Y-84060603D01*
X88334493Y-84075994D01*
X88298381Y-84090878D01*
X88293097Y-84093735D01*
X88293088Y-84093739D01*
X88293081Y-84093744D01*
X88097607Y-84201207D01*
X88065402Y-84223258D01*
X88032838Y-84244894D01*
X88028201Y-84248730D01*
X88024304Y-84252000D01*
X86284000Y-84252000D01*
X86259224Y-84254440D01*
X86235399Y-84261667D01*
X86213443Y-84273403D01*
X86194197Y-84289197D01*
X86178403Y-84308443D01*
X86166667Y-84330399D01*
X86159440Y-84354224D01*
X86157000Y-84379000D01*
X86157000Y-86834598D01*
X86067821Y-86923777D01*
X85894218Y-87183594D01*
X85774637Y-87472286D01*
X85713676Y-87778761D01*
X85713676Y-88091239D01*
X85774637Y-88397714D01*
X85894218Y-88686406D01*
X86067821Y-88946223D01*
X86157000Y-89035402D01*
X86157000Y-90729000D01*
X82728000Y-90729000D01*
X82728000Y-86842078D01*
X83191032Y-86842078D01*
X83191032Y-86995922D01*
X83221045Y-87146809D01*
X83279919Y-87288942D01*
X83365390Y-87416859D01*
X83474173Y-87525642D01*
X83602090Y-87611113D01*
X83744223Y-87669987D01*
X83895110Y-87700000D01*
X84048954Y-87700000D01*
X84199841Y-87669987D01*
X84341974Y-87611113D01*
X84469891Y-87525642D01*
X84578674Y-87416859D01*
X84664145Y-87288942D01*
X84723019Y-87146809D01*
X84753032Y-86995922D01*
X84753032Y-86842078D01*
X84723019Y-86691191D01*
X84664145Y-86549058D01*
X84578674Y-86421141D01*
X84469891Y-86312358D01*
X84341974Y-86226887D01*
X84199841Y-86168013D01*
X84048954Y-86138000D01*
X83895110Y-86138000D01*
X83744223Y-86168013D01*
X83602090Y-86226887D01*
X83474173Y-86312358D01*
X83365390Y-86421141D01*
X83279919Y-86549058D01*
X83221045Y-86691191D01*
X83191032Y-86842078D01*
X82728000Y-86842078D01*
X82728000Y-83159078D01*
X83852000Y-83159078D01*
X83852000Y-83312922D01*
X83882013Y-83463809D01*
X83940887Y-83605942D01*
X84026358Y-83733859D01*
X84135141Y-83842642D01*
X84263058Y-83928113D01*
X84405191Y-83986987D01*
X84556078Y-84017000D01*
X84709922Y-84017000D01*
X84860809Y-83986987D01*
X85002942Y-83928113D01*
X85130859Y-83842642D01*
X85239642Y-83733859D01*
X85268000Y-83691418D01*
X85296358Y-83733859D01*
X85405141Y-83842642D01*
X85533058Y-83928113D01*
X85675191Y-83986987D01*
X85826078Y-84017000D01*
X85979922Y-84017000D01*
X86130809Y-83986987D01*
X86272942Y-83928113D01*
X86400859Y-83842642D01*
X86509642Y-83733859D01*
X86595113Y-83605942D01*
X86653987Y-83463809D01*
X86684000Y-83312922D01*
X86684000Y-83159078D01*
X86653987Y-83008191D01*
X86650358Y-82999429D01*
X88526414Y-82999429D01*
X88552614Y-83230586D01*
X88623408Y-83452189D01*
X88716707Y-83626741D01*
X88897292Y-83707199D01*
X89622490Y-82982000D01*
X89803510Y-82982000D01*
X90528708Y-83707199D01*
X90709293Y-83626741D01*
X90815932Y-83419985D01*
X90880186Y-83196398D01*
X90899586Y-82964571D01*
X90873386Y-82733414D01*
X90802592Y-82511811D01*
X90709293Y-82337259D01*
X90528708Y-82256801D01*
X89803510Y-82982000D01*
X89622490Y-82982000D01*
X88897292Y-82256801D01*
X88716707Y-82337259D01*
X88610068Y-82544015D01*
X88545814Y-82767602D01*
X88526414Y-82999429D01*
X86650358Y-82999429D01*
X86595113Y-82866058D01*
X86509642Y-82738141D01*
X86400859Y-82629358D01*
X86272942Y-82543887D01*
X86130809Y-82485013D01*
X85979922Y-82455000D01*
X85826078Y-82455000D01*
X85675191Y-82485013D01*
X85533058Y-82543887D01*
X85405141Y-82629358D01*
X85296358Y-82738141D01*
X85268000Y-82780582D01*
X85239642Y-82738141D01*
X85130859Y-82629358D01*
X85002942Y-82543887D01*
X84860809Y-82485013D01*
X84709922Y-82455000D01*
X84556078Y-82455000D01*
X84405191Y-82485013D01*
X84263058Y-82543887D01*
X84135141Y-82629358D01*
X84026358Y-82738141D01*
X83940887Y-82866058D01*
X83882013Y-83008191D01*
X83852000Y-83159078D01*
X82728000Y-83159078D01*
X82728000Y-82166292D01*
X88987801Y-82166292D01*
X89713000Y-82891490D01*
X90438199Y-82166292D01*
X90357741Y-81985707D01*
X90150985Y-81879068D01*
X89927398Y-81814814D01*
X89695571Y-81795414D01*
X89464414Y-81821614D01*
X89242811Y-81892408D01*
X89068259Y-81985707D01*
X88987801Y-82166292D01*
X82728000Y-82166292D01*
X82728000Y-81242000D01*
X88530157Y-81242000D01*
X88537513Y-81316689D01*
X88559299Y-81388508D01*
X88594678Y-81454696D01*
X88642289Y-81512711D01*
X88700304Y-81560322D01*
X88766492Y-81595701D01*
X88838311Y-81617487D01*
X88913000Y-81624843D01*
X89553750Y-81623000D01*
X89649000Y-81527750D01*
X89649000Y-80506000D01*
X89777000Y-80506000D01*
X89777000Y-81527750D01*
X89872250Y-81623000D01*
X90513000Y-81624843D01*
X90587689Y-81617487D01*
X90659508Y-81595701D01*
X90725696Y-81560322D01*
X90783711Y-81512711D01*
X90831322Y-81454696D01*
X90866701Y-81388508D01*
X90888487Y-81316689D01*
X90895843Y-81242000D01*
X90894000Y-80601250D01*
X90798750Y-80506000D01*
X89777000Y-80506000D01*
X89649000Y-80506000D01*
X88627250Y-80506000D01*
X88532000Y-80601250D01*
X88530157Y-81242000D01*
X82728000Y-81242000D01*
X82728000Y-79642000D01*
X88530157Y-79642000D01*
X88532000Y-80282750D01*
X88627250Y-80378000D01*
X89649000Y-80378000D01*
X89649000Y-79356250D01*
X89777000Y-79356250D01*
X89777000Y-80378000D01*
X90798750Y-80378000D01*
X90851068Y-80325682D01*
X96152000Y-80325682D01*
X96152000Y-80558318D01*
X96197386Y-80786485D01*
X96286412Y-81001413D01*
X96415658Y-81194843D01*
X96580157Y-81359342D01*
X96773587Y-81488588D01*
X96988515Y-81577614D01*
X97216682Y-81623000D01*
X97449318Y-81623000D01*
X97677485Y-81577614D01*
X97892413Y-81488588D01*
X98085843Y-81359342D01*
X98250342Y-81194843D01*
X98379588Y-81001413D01*
X98468614Y-80786485D01*
X98514000Y-80558318D01*
X98514000Y-80325682D01*
X98471312Y-80111078D01*
X100615992Y-80111078D01*
X100615992Y-80264922D01*
X100646005Y-80415809D01*
X100704879Y-80557942D01*
X100790350Y-80685859D01*
X100899133Y-80794642D01*
X101027050Y-80880113D01*
X101169183Y-80938987D01*
X101320070Y-80969000D01*
X101473914Y-80969000D01*
X101624801Y-80938987D01*
X101766934Y-80880113D01*
X101894851Y-80794642D01*
X102003634Y-80685859D01*
X102089105Y-80557942D01*
X102147979Y-80415809D01*
X102177992Y-80264922D01*
X102177992Y-80111078D01*
X102147979Y-79960191D01*
X102089105Y-79818058D01*
X102003634Y-79690141D01*
X101894851Y-79581358D01*
X101766934Y-79495887D01*
X101624801Y-79437013D01*
X101473914Y-79407000D01*
X101320070Y-79407000D01*
X101169183Y-79437013D01*
X101027050Y-79495887D01*
X100899133Y-79581358D01*
X100790350Y-79690141D01*
X100704879Y-79818058D01*
X100646005Y-79960191D01*
X100615992Y-80111078D01*
X98471312Y-80111078D01*
X98468614Y-80097515D01*
X98379588Y-79882587D01*
X98250342Y-79689157D01*
X98085843Y-79524658D01*
X97892413Y-79395412D01*
X97677485Y-79306386D01*
X97449318Y-79261000D01*
X97216682Y-79261000D01*
X96988515Y-79306386D01*
X96773587Y-79395412D01*
X96580157Y-79524658D01*
X96415658Y-79689157D01*
X96286412Y-79882587D01*
X96197386Y-80097515D01*
X96152000Y-80325682D01*
X90851068Y-80325682D01*
X90894000Y-80282750D01*
X90895843Y-79642000D01*
X90888487Y-79567311D01*
X90866701Y-79495492D01*
X90831322Y-79429304D01*
X90783711Y-79371289D01*
X90725696Y-79323678D01*
X90659508Y-79288299D01*
X90587689Y-79266513D01*
X90513000Y-79259157D01*
X89872250Y-79261000D01*
X89777000Y-79356250D01*
X89649000Y-79356250D01*
X89553750Y-79261000D01*
X88913000Y-79259157D01*
X88838311Y-79266513D01*
X88766492Y-79288299D01*
X88700304Y-79323678D01*
X88642289Y-79371289D01*
X88594678Y-79429304D01*
X88559299Y-79495492D01*
X88537513Y-79567311D01*
X88530157Y-79642000D01*
X82728000Y-79642000D01*
X82728000Y-79222078D01*
X103664000Y-79222078D01*
X103664000Y-79375922D01*
X103694013Y-79526809D01*
X103752887Y-79668942D01*
X103838358Y-79796859D01*
X103947141Y-79905642D01*
X104075058Y-79991113D01*
X104217191Y-80049987D01*
X104368078Y-80080000D01*
X104521922Y-80080000D01*
X104672809Y-80049987D01*
X104814942Y-79991113D01*
X104942859Y-79905642D01*
X105051642Y-79796859D01*
X105137113Y-79668942D01*
X105195987Y-79526809D01*
X105226000Y-79375922D01*
X105226000Y-79222078D01*
X105198551Y-79084078D01*
X107474000Y-79084078D01*
X107474000Y-79237922D01*
X107504013Y-79388809D01*
X107562887Y-79530942D01*
X107648358Y-79658859D01*
X107757141Y-79767642D01*
X107885058Y-79853113D01*
X108027191Y-79911987D01*
X108178078Y-79942000D01*
X108331922Y-79942000D01*
X108482809Y-79911987D01*
X108624942Y-79853113D01*
X108752859Y-79767642D01*
X108861642Y-79658859D01*
X108872906Y-79642000D01*
X109104157Y-79642000D01*
X109106000Y-80282750D01*
X109201250Y-80378000D01*
X110223000Y-80378000D01*
X110223000Y-79356250D01*
X110351000Y-79356250D01*
X110351000Y-80378000D01*
X111372750Y-80378000D01*
X111468000Y-80282750D01*
X111469843Y-79642000D01*
X111462487Y-79567311D01*
X111440701Y-79495492D01*
X111405322Y-79429304D01*
X111357711Y-79371289D01*
X111299696Y-79323678D01*
X111233508Y-79288299D01*
X111161689Y-79266513D01*
X111087000Y-79259157D01*
X110446250Y-79261000D01*
X110351000Y-79356250D01*
X110223000Y-79356250D01*
X110127750Y-79261000D01*
X109487000Y-79259157D01*
X109412311Y-79266513D01*
X109340492Y-79288299D01*
X109274304Y-79323678D01*
X109216289Y-79371289D01*
X109168678Y-79429304D01*
X109133299Y-79495492D01*
X109111513Y-79567311D01*
X109104157Y-79642000D01*
X108872906Y-79642000D01*
X108947113Y-79530942D01*
X109005987Y-79388809D01*
X109036000Y-79237922D01*
X109036000Y-79084078D01*
X109005987Y-78933191D01*
X108947113Y-78791058D01*
X108861642Y-78663141D01*
X108752859Y-78554358D01*
X108624942Y-78468887D01*
X108482809Y-78410013D01*
X108331922Y-78380000D01*
X108178078Y-78380000D01*
X108027191Y-78410013D01*
X107885058Y-78468887D01*
X107757141Y-78554358D01*
X107648358Y-78663141D01*
X107562887Y-78791058D01*
X107504013Y-78933191D01*
X107474000Y-79084078D01*
X105198551Y-79084078D01*
X105195987Y-79071191D01*
X105137113Y-78929058D01*
X105051642Y-78801141D01*
X104942859Y-78692358D01*
X104814942Y-78606887D01*
X104672809Y-78548013D01*
X104521922Y-78518000D01*
X104368078Y-78518000D01*
X104217191Y-78548013D01*
X104075058Y-78606887D01*
X103947141Y-78692358D01*
X103838358Y-78801141D01*
X103752887Y-78929058D01*
X103694013Y-79071191D01*
X103664000Y-79222078D01*
X82728000Y-79222078D01*
X82728000Y-77698078D01*
X83699000Y-77698078D01*
X83699000Y-77851922D01*
X83729013Y-78002809D01*
X83787887Y-78144942D01*
X83873358Y-78272859D01*
X83982141Y-78381642D01*
X84110058Y-78467113D01*
X84252191Y-78525987D01*
X84403078Y-78556000D01*
X84556922Y-78556000D01*
X84707809Y-78525987D01*
X84849942Y-78467113D01*
X84977859Y-78381642D01*
X85086642Y-78272859D01*
X85172113Y-78144942D01*
X85230987Y-78002809D01*
X85241077Y-77952078D01*
X89186000Y-77952078D01*
X89186000Y-78105922D01*
X89216013Y-78256809D01*
X89274887Y-78398942D01*
X89360358Y-78526859D01*
X89469141Y-78635642D01*
X89597058Y-78721113D01*
X89739191Y-78779987D01*
X89890078Y-78810000D01*
X90043922Y-78810000D01*
X90194809Y-78779987D01*
X90336942Y-78721113D01*
X90464859Y-78635642D01*
X90573642Y-78526859D01*
X90659113Y-78398942D01*
X90717987Y-78256809D01*
X90729000Y-78201442D01*
X90740013Y-78256809D01*
X90798887Y-78398942D01*
X90884358Y-78526859D01*
X90993141Y-78635642D01*
X91121058Y-78721113D01*
X91263191Y-78779987D01*
X91414078Y-78810000D01*
X91567922Y-78810000D01*
X91718809Y-78779987D01*
X91860942Y-78721113D01*
X91988859Y-78635642D01*
X92097642Y-78526859D01*
X92183113Y-78398942D01*
X92241987Y-78256809D01*
X92272000Y-78105922D01*
X92272000Y-77952078D01*
X92241987Y-77801191D01*
X92183113Y-77659058D01*
X92097642Y-77531141D01*
X91988859Y-77422358D01*
X91860942Y-77336887D01*
X91718809Y-77278013D01*
X91567922Y-77248000D01*
X91414078Y-77248000D01*
X91263191Y-77278013D01*
X91121058Y-77336887D01*
X90993141Y-77422358D01*
X90884358Y-77531141D01*
X90798887Y-77659058D01*
X90740013Y-77801191D01*
X90729000Y-77856558D01*
X90717987Y-77801191D01*
X90659113Y-77659058D01*
X90573642Y-77531141D01*
X90464859Y-77422358D01*
X90336942Y-77336887D01*
X90194809Y-77278013D01*
X90043922Y-77248000D01*
X89890078Y-77248000D01*
X89739191Y-77278013D01*
X89597058Y-77336887D01*
X89469141Y-77422358D01*
X89360358Y-77531141D01*
X89274887Y-77659058D01*
X89216013Y-77801191D01*
X89186000Y-77952078D01*
X85241077Y-77952078D01*
X85261000Y-77851922D01*
X85261000Y-77698078D01*
X85230987Y-77547191D01*
X85172113Y-77405058D01*
X85086642Y-77277141D01*
X84977859Y-77168358D01*
X84849942Y-77082887D01*
X84707809Y-77024013D01*
X84556922Y-76994000D01*
X84403078Y-76994000D01*
X84252191Y-77024013D01*
X84110058Y-77082887D01*
X83982141Y-77168358D01*
X83873358Y-77277141D01*
X83787887Y-77405058D01*
X83729013Y-77547191D01*
X83699000Y-77698078D01*
X82728000Y-77698078D01*
X82728000Y-76301078D01*
X89186000Y-76301078D01*
X89186000Y-76454922D01*
X89216013Y-76605809D01*
X89274887Y-76747942D01*
X89360358Y-76875859D01*
X89469141Y-76984642D01*
X89597058Y-77070113D01*
X89739191Y-77128987D01*
X89890078Y-77159000D01*
X90043922Y-77159000D01*
X90194809Y-77128987D01*
X90336942Y-77070113D01*
X90464859Y-76984642D01*
X90573642Y-76875859D01*
X90659113Y-76747942D01*
X90717987Y-76605809D01*
X90729000Y-76550442D01*
X90740013Y-76605809D01*
X90798887Y-76747942D01*
X90884358Y-76875859D01*
X90993141Y-76984642D01*
X91121058Y-77070113D01*
X91263191Y-77128987D01*
X91414078Y-77159000D01*
X91567922Y-77159000D01*
X91718809Y-77128987D01*
X91860942Y-77070113D01*
X91988859Y-76984642D01*
X92097642Y-76875859D01*
X92183113Y-76747942D01*
X92241987Y-76605809D01*
X92272000Y-76454922D01*
X92272000Y-76301078D01*
X92241987Y-76150191D01*
X92183113Y-76008058D01*
X92097642Y-75880141D01*
X91988859Y-75771358D01*
X91860942Y-75685887D01*
X91718809Y-75627013D01*
X91567922Y-75597000D01*
X91414078Y-75597000D01*
X91263191Y-75627013D01*
X91121058Y-75685887D01*
X90993141Y-75771358D01*
X90884358Y-75880141D01*
X90798887Y-76008058D01*
X90740013Y-76150191D01*
X90729000Y-76205558D01*
X90717987Y-76150191D01*
X90659113Y-76008058D01*
X90573642Y-75880141D01*
X90464859Y-75771358D01*
X90336942Y-75685887D01*
X90194809Y-75627013D01*
X90043922Y-75597000D01*
X89890078Y-75597000D01*
X89739191Y-75627013D01*
X89597058Y-75685887D01*
X89469141Y-75771358D01*
X89360358Y-75880141D01*
X89274887Y-76008058D01*
X89216013Y-76150191D01*
X89186000Y-76301078D01*
X82728000Y-76301078D01*
X82728000Y-75431000D01*
X97631351Y-75431000D01*
X97597141Y-75453858D01*
%TA.AperFunction,Conductor*%
D22*
G36*
X97597141Y-75453858D02*
G01*
X97488358Y-75562641D01*
X97402887Y-75690558D01*
X97344013Y-75832691D01*
X97314000Y-75983578D01*
X97314000Y-76137422D01*
X97344013Y-76288309D01*
X97402887Y-76430442D01*
X97488358Y-76558359D01*
X97597141Y-76667142D01*
X97725058Y-76752613D01*
X97867191Y-76811487D01*
X98018078Y-76841500D01*
X98171922Y-76841500D01*
X98322809Y-76811487D01*
X98464942Y-76752613D01*
X98592859Y-76667142D01*
X98701642Y-76558359D01*
X98787113Y-76430442D01*
X98845987Y-76288309D01*
X98863315Y-76201192D01*
X98868013Y-76224809D01*
X98926887Y-76366942D01*
X99012358Y-76494859D01*
X99121141Y-76603642D01*
X99249058Y-76689113D01*
X99391191Y-76747987D01*
X99542078Y-76778000D01*
X99695922Y-76778000D01*
X99846809Y-76747987D01*
X99988942Y-76689113D01*
X100116859Y-76603642D01*
X100225642Y-76494859D01*
X100311113Y-76366942D01*
X100369987Y-76224809D01*
X100400000Y-76073922D01*
X100400000Y-75920078D01*
X100369987Y-75769191D01*
X100311113Y-75627058D01*
X100225642Y-75499141D01*
X100157501Y-75431000D01*
X108478499Y-75431000D01*
X108410358Y-75499141D01*
X108324887Y-75627058D01*
X108266013Y-75769191D01*
X108236000Y-75920078D01*
X108236000Y-76073922D01*
X108266013Y-76224809D01*
X108324887Y-76366942D01*
X108410358Y-76494859D01*
X108519141Y-76603642D01*
X108647058Y-76689113D01*
X108789191Y-76747987D01*
X108940078Y-76778000D01*
X109093922Y-76778000D01*
X109244809Y-76747987D01*
X109386942Y-76689113D01*
X109514859Y-76603642D01*
X109623642Y-76494859D01*
X109709113Y-76366942D01*
X109767987Y-76224809D01*
X109772685Y-76201192D01*
X109790013Y-76288309D01*
X109848887Y-76430442D01*
X109934358Y-76558359D01*
X110043141Y-76667142D01*
X110171058Y-76752613D01*
X110313191Y-76811487D01*
X110464078Y-76841500D01*
X110617922Y-76841500D01*
X110768809Y-76811487D01*
X110910942Y-76752613D01*
X111038859Y-76667142D01*
X111147642Y-76558359D01*
X111233113Y-76430442D01*
X111291987Y-76288309D01*
X111322000Y-76137422D01*
X111322000Y-75983578D01*
X111291987Y-75832691D01*
X111233113Y-75690558D01*
X111147642Y-75562641D01*
X111038859Y-75453858D01*
X111004649Y-75431000D01*
X119177000Y-75431000D01*
X119177000Y-75781499D01*
X119166859Y-75771358D01*
X119038942Y-75685887D01*
X118896809Y-75627013D01*
X118745922Y-75597000D01*
X118592078Y-75597000D01*
X118441191Y-75627013D01*
X118299058Y-75685887D01*
X118171141Y-75771358D01*
X118062358Y-75880141D01*
X117976887Y-76008058D01*
X117918013Y-76150191D01*
X117907000Y-76205558D01*
X117895987Y-76150191D01*
X117837113Y-76008058D01*
X117751642Y-75880141D01*
X117642859Y-75771358D01*
X117514942Y-75685887D01*
X117372809Y-75627013D01*
X117221922Y-75597000D01*
X117068078Y-75597000D01*
X116917191Y-75627013D01*
X116775058Y-75685887D01*
X116647141Y-75771358D01*
X116538358Y-75880141D01*
X116452887Y-76008058D01*
X116394013Y-76150191D01*
X116364000Y-76301078D01*
X116364000Y-76454922D01*
X116394013Y-76605809D01*
X116452887Y-76747942D01*
X116538358Y-76875859D01*
X116647141Y-76984642D01*
X116775058Y-77070113D01*
X116917191Y-77128987D01*
X117068078Y-77159000D01*
X117221922Y-77159000D01*
X117372809Y-77128987D01*
X117514942Y-77070113D01*
X117642859Y-76984642D01*
X117751642Y-76875859D01*
X117837113Y-76747942D01*
X117895987Y-76605809D01*
X117907000Y-76550442D01*
X117918013Y-76605809D01*
X117976887Y-76747942D01*
X118062358Y-76875859D01*
X118171141Y-76984642D01*
X118299058Y-77070113D01*
X118441191Y-77128987D01*
X118592078Y-77159000D01*
X118745922Y-77159000D01*
X118896809Y-77128987D01*
X119038942Y-77070113D01*
X119166859Y-76984642D01*
X119177000Y-76974501D01*
X119177000Y-77061289D01*
X119136693Y-77137096D01*
X119121817Y-77173188D01*
X119106419Y-77209114D01*
X119104640Y-77214863D01*
X119062954Y-77352931D01*
X119038942Y-77336887D01*
X118896809Y-77278013D01*
X118745922Y-77248000D01*
X118592078Y-77248000D01*
X118441191Y-77278013D01*
X118299058Y-77336887D01*
X118171141Y-77422358D01*
X118062358Y-77531141D01*
X117976887Y-77659058D01*
X117918013Y-77801191D01*
X117907000Y-77856558D01*
X117895987Y-77801191D01*
X117837113Y-77659058D01*
X117751642Y-77531141D01*
X117642859Y-77422358D01*
X117514942Y-77336887D01*
X117372809Y-77278013D01*
X117221922Y-77248000D01*
X117068078Y-77248000D01*
X116917191Y-77278013D01*
X116775058Y-77336887D01*
X116647141Y-77422358D01*
X116538358Y-77531141D01*
X116452887Y-77659058D01*
X116394013Y-77801191D01*
X116364000Y-77952078D01*
X116364000Y-78105922D01*
X116394013Y-78256809D01*
X116452887Y-78398942D01*
X116538358Y-78526859D01*
X116647141Y-78635642D01*
X116775058Y-78721113D01*
X116917191Y-78779987D01*
X117068078Y-78810000D01*
X117221922Y-78810000D01*
X117372809Y-78779987D01*
X117514942Y-78721113D01*
X117642859Y-78635642D01*
X117751642Y-78526859D01*
X117837113Y-78398942D01*
X117895987Y-78256809D01*
X117907000Y-78201442D01*
X117918013Y-78256809D01*
X117976887Y-78398942D01*
X118062358Y-78526859D01*
X118171141Y-78635642D01*
X118299058Y-78721113D01*
X118441191Y-78779987D01*
X118592078Y-78810000D01*
X118745922Y-78810000D01*
X118896809Y-78779987D01*
X119000001Y-78737243D01*
X119000000Y-79994636D01*
X118953588Y-79882587D01*
X118824342Y-79689157D01*
X118659843Y-79524658D01*
X118466413Y-79395412D01*
X118251485Y-79306386D01*
X118023318Y-79261000D01*
X117790682Y-79261000D01*
X117562515Y-79306386D01*
X117347587Y-79395412D01*
X117154157Y-79524658D01*
X116989658Y-79689157D01*
X116860412Y-79882587D01*
X116771386Y-80097515D01*
X116726000Y-80325682D01*
X116726000Y-80558318D01*
X116771386Y-80786485D01*
X116860412Y-81001413D01*
X116989658Y-81194843D01*
X117154157Y-81359342D01*
X117347587Y-81488588D01*
X117562515Y-81577614D01*
X117790682Y-81623000D01*
X118023318Y-81623000D01*
X118251485Y-81577614D01*
X118466413Y-81488588D01*
X118659843Y-81359342D01*
X118824342Y-81194843D01*
X118953588Y-81001413D01*
X119000000Y-80889364D01*
X119000000Y-80971167D01*
X119002168Y-80993178D01*
X119002168Y-81008017D01*
X119002797Y-81014002D01*
X119027663Y-81235686D01*
X119035784Y-81273890D01*
X119043372Y-81312215D01*
X119045152Y-81317964D01*
X119112603Y-81530597D01*
X119127989Y-81566495D01*
X119142878Y-81602619D01*
X119145735Y-81607903D01*
X119145739Y-81607912D01*
X119145744Y-81607919D01*
X119177000Y-81664774D01*
X119177000Y-84036899D01*
X119015584Y-83988164D01*
X118977298Y-83980583D01*
X118939053Y-83972454D01*
X118933070Y-83971825D01*
X118933068Y-83971825D01*
X118711058Y-83950057D01*
X118711052Y-83950057D01*
X118690168Y-83948000D01*
X118587021Y-83948000D01*
X118659843Y-83899342D01*
X118824342Y-83734843D01*
X118953588Y-83541413D01*
X119042614Y-83326485D01*
X119088000Y-83098318D01*
X119088000Y-82865682D01*
X119042614Y-82637515D01*
X118953588Y-82422587D01*
X118824342Y-82229157D01*
X118659843Y-82064658D01*
X118466413Y-81935412D01*
X118251485Y-81846386D01*
X118023318Y-81801000D01*
X117790682Y-81801000D01*
X117562515Y-81846386D01*
X117347587Y-81935412D01*
X117154157Y-82064658D01*
X116989658Y-82229157D01*
X116860412Y-82422587D01*
X116771386Y-82637515D01*
X116726000Y-82865682D01*
X116726000Y-83098318D01*
X116771386Y-83326485D01*
X116860412Y-83541413D01*
X116989658Y-83734843D01*
X117154157Y-83899342D01*
X117226979Y-83948000D01*
X117123832Y-83948000D01*
X117101821Y-83950168D01*
X117086983Y-83950168D01*
X117080997Y-83950797D01*
X116859314Y-83975663D01*
X116821110Y-83983784D01*
X116782785Y-83991372D01*
X116777038Y-83993151D01*
X116777032Y-83993153D01*
X116564403Y-84060603D01*
X116528493Y-84075994D01*
X116492381Y-84090878D01*
X116487097Y-84093735D01*
X116487088Y-84093739D01*
X116487081Y-84093744D01*
X116291607Y-84201207D01*
X116259402Y-84223258D01*
X116226838Y-84244894D01*
X116222201Y-84248730D01*
X116218304Y-84252000D01*
X111973586Y-84252000D01*
X111953932Y-84235971D01*
X111921433Y-84214378D01*
X111889162Y-84192282D01*
X111883868Y-84189420D01*
X111686904Y-84084693D01*
X111650812Y-84069817D01*
X111614886Y-84054419D01*
X111609137Y-84052640D01*
X111609139Y-84052640D01*
X111609131Y-84052638D01*
X111395584Y-83988164D01*
X111357298Y-83980583D01*
X111319053Y-83972454D01*
X111313070Y-83971825D01*
X111313068Y-83971825D01*
X111091058Y-83950057D01*
X111091052Y-83950057D01*
X111070168Y-83948000D01*
X110945238Y-83948000D01*
X111012199Y-83797708D01*
X110287000Y-83072510D01*
X109561801Y-83797708D01*
X109628762Y-83948000D01*
X109503832Y-83948000D01*
X109481821Y-83950168D01*
X109466983Y-83950168D01*
X109460997Y-83950797D01*
X109239314Y-83975663D01*
X109201110Y-83983784D01*
X109162785Y-83991372D01*
X109157038Y-83993151D01*
X109157032Y-83993153D01*
X108944403Y-84060603D01*
X108908493Y-84075994D01*
X108872381Y-84090878D01*
X108867097Y-84093735D01*
X108867088Y-84093739D01*
X108867081Y-84093744D01*
X108671607Y-84201207D01*
X108639402Y-84223258D01*
X108606838Y-84244894D01*
X108602201Y-84248730D01*
X108598304Y-84252000D01*
X99019586Y-84252000D01*
X98999932Y-84235971D01*
X98967433Y-84214378D01*
X98935162Y-84192282D01*
X98929868Y-84189420D01*
X98732904Y-84084693D01*
X98696812Y-84069817D01*
X98660886Y-84054419D01*
X98655137Y-84052640D01*
X98655139Y-84052640D01*
X98655131Y-84052638D01*
X98441584Y-83988164D01*
X98403298Y-83980583D01*
X98365053Y-83972454D01*
X98359070Y-83971825D01*
X98359068Y-83971825D01*
X98137058Y-83950057D01*
X98137052Y-83950057D01*
X98116168Y-83948000D01*
X98013021Y-83948000D01*
X98085843Y-83899342D01*
X98250342Y-83734843D01*
X98379588Y-83541413D01*
X98468614Y-83326485D01*
X98514000Y-83098318D01*
X98514000Y-82865682D01*
X98468614Y-82637515D01*
X98379588Y-82422587D01*
X98250342Y-82229157D01*
X98085843Y-82064658D01*
X98069608Y-82053810D01*
X102716423Y-82053810D01*
X102716423Y-82207654D01*
X102746436Y-82358541D01*
X102805310Y-82500674D01*
X102890781Y-82628591D01*
X102999564Y-82737374D01*
X103127481Y-82822845D01*
X103269614Y-82881719D01*
X103420501Y-82911732D01*
X103574345Y-82911732D01*
X103725232Y-82881719D01*
X103867365Y-82822845D01*
X103995282Y-82737374D01*
X104104065Y-82628591D01*
X104189536Y-82500674D01*
X104215094Y-82438970D01*
X104834814Y-82438970D01*
X104834814Y-82592814D01*
X104864827Y-82743701D01*
X104923701Y-82885834D01*
X105009172Y-83013751D01*
X105117955Y-83122534D01*
X105245872Y-83208005D01*
X105388005Y-83266879D01*
X105538892Y-83296892D01*
X105692736Y-83296892D01*
X105843623Y-83266879D01*
X105985756Y-83208005D01*
X106113673Y-83122534D01*
X106222456Y-83013751D01*
X106307927Y-82885834D01*
X106316938Y-82864078D01*
X107052000Y-82864078D01*
X107052000Y-83017922D01*
X107082013Y-83168809D01*
X107140887Y-83310942D01*
X107226358Y-83438859D01*
X107335141Y-83547642D01*
X107463058Y-83633113D01*
X107605191Y-83691987D01*
X107756078Y-83722000D01*
X107909922Y-83722000D01*
X108060809Y-83691987D01*
X108202942Y-83633113D01*
X108330859Y-83547642D01*
X108439642Y-83438859D01*
X108525113Y-83310942D01*
X108583987Y-83168809D01*
X108614000Y-83017922D01*
X108614000Y-82999429D01*
X109100414Y-82999429D01*
X109126614Y-83230586D01*
X109197408Y-83452189D01*
X109290707Y-83626741D01*
X109471292Y-83707199D01*
X110196490Y-82982000D01*
X110377510Y-82982000D01*
X111102708Y-83707199D01*
X111283293Y-83626741D01*
X111389932Y-83419985D01*
X111454186Y-83196398D01*
X111473586Y-82964571D01*
X111447386Y-82733414D01*
X111376592Y-82511811D01*
X111283293Y-82337259D01*
X111102708Y-82256801D01*
X110377510Y-82982000D01*
X110196490Y-82982000D01*
X109471292Y-82256801D01*
X109290707Y-82337259D01*
X109184068Y-82544015D01*
X109119814Y-82767602D01*
X109100414Y-82999429D01*
X108614000Y-82999429D01*
X108614000Y-82864078D01*
X108583987Y-82713191D01*
X108525113Y-82571058D01*
X108439642Y-82443141D01*
X108330859Y-82334358D01*
X108202942Y-82248887D01*
X108060809Y-82190013D01*
X107941555Y-82166292D01*
X109561801Y-82166292D01*
X110287000Y-82891490D01*
X111012199Y-82166292D01*
X110931741Y-81985707D01*
X110724985Y-81879068D01*
X110501398Y-81814814D01*
X110269571Y-81795414D01*
X110038414Y-81821614D01*
X109816811Y-81892408D01*
X109642259Y-81985707D01*
X109561801Y-82166292D01*
X107941555Y-82166292D01*
X107909922Y-82160000D01*
X107756078Y-82160000D01*
X107605191Y-82190013D01*
X107463058Y-82248887D01*
X107335141Y-82334358D01*
X107226358Y-82443141D01*
X107140887Y-82571058D01*
X107082013Y-82713191D01*
X107052000Y-82864078D01*
X106316938Y-82864078D01*
X106366801Y-82743701D01*
X106396814Y-82592814D01*
X106396814Y-82438970D01*
X106366801Y-82288083D01*
X106307927Y-82145950D01*
X106222456Y-82018033D01*
X106170547Y-81966124D01*
X106222528Y-81914143D01*
X106307999Y-81786226D01*
X106366873Y-81644093D01*
X106396886Y-81493206D01*
X106396886Y-81339362D01*
X106377520Y-81242000D01*
X109104157Y-81242000D01*
X109111513Y-81316689D01*
X109133299Y-81388508D01*
X109168678Y-81454696D01*
X109216289Y-81512711D01*
X109274304Y-81560322D01*
X109340492Y-81595701D01*
X109412311Y-81617487D01*
X109487000Y-81624843D01*
X110127750Y-81623000D01*
X110223000Y-81527750D01*
X110223000Y-80506000D01*
X110351000Y-80506000D01*
X110351000Y-81527750D01*
X110446250Y-81623000D01*
X111087000Y-81624843D01*
X111161689Y-81617487D01*
X111233508Y-81595701D01*
X111299696Y-81560322D01*
X111357711Y-81512711D01*
X111405322Y-81454696D01*
X111440701Y-81388508D01*
X111462487Y-81316689D01*
X111469843Y-81242000D01*
X111468000Y-80601250D01*
X111372750Y-80506000D01*
X110351000Y-80506000D01*
X110223000Y-80506000D01*
X109201250Y-80506000D01*
X109106000Y-80601250D01*
X109104157Y-81242000D01*
X106377520Y-81242000D01*
X106366873Y-81188475D01*
X106307999Y-81046342D01*
X106222528Y-80918425D01*
X106113745Y-80809642D01*
X105985828Y-80724171D01*
X105843695Y-80665297D01*
X105692808Y-80635284D01*
X105538964Y-80635284D01*
X105388077Y-80665297D01*
X105245944Y-80724171D01*
X105118027Y-80809642D01*
X105009244Y-80918425D01*
X104923773Y-81046342D01*
X104864899Y-81188475D01*
X104834886Y-81339362D01*
X104834886Y-81493206D01*
X104864899Y-81644093D01*
X104923773Y-81786226D01*
X105009244Y-81914143D01*
X105061153Y-81966052D01*
X105009172Y-82018033D01*
X104923701Y-82145950D01*
X104864827Y-82288083D01*
X104834814Y-82438970D01*
X104215094Y-82438970D01*
X104248410Y-82358541D01*
X104278423Y-82207654D01*
X104278423Y-82053810D01*
X104248410Y-81902923D01*
X104189536Y-81760790D01*
X104104065Y-81632873D01*
X103995282Y-81524090D01*
X103867365Y-81438619D01*
X103725232Y-81379745D01*
X103574345Y-81349732D01*
X103420501Y-81349732D01*
X103269614Y-81379745D01*
X103127481Y-81438619D01*
X102999564Y-81524090D01*
X102890781Y-81632873D01*
X102805310Y-81760790D01*
X102746436Y-81902923D01*
X102716423Y-82053810D01*
X98069608Y-82053810D01*
X97892413Y-81935412D01*
X97677485Y-81846386D01*
X97449318Y-81801000D01*
X97216682Y-81801000D01*
X96988515Y-81846386D01*
X96773587Y-81935412D01*
X96580157Y-82064658D01*
X96415658Y-82229157D01*
X96286412Y-82422587D01*
X96197386Y-82637515D01*
X96152000Y-82865682D01*
X96152000Y-83098318D01*
X96197386Y-83326485D01*
X96286412Y-83541413D01*
X96415658Y-83734843D01*
X96580157Y-83899342D01*
X96652979Y-83948000D01*
X96549832Y-83948000D01*
X96527821Y-83950168D01*
X96512983Y-83950168D01*
X96506997Y-83950797D01*
X96285314Y-83975663D01*
X96247110Y-83983784D01*
X96208785Y-83991372D01*
X96203038Y-83993151D01*
X96203032Y-83993153D01*
X95990403Y-84060603D01*
X95954493Y-84075994D01*
X95918381Y-84090878D01*
X95913097Y-84093735D01*
X95913088Y-84093739D01*
X95913081Y-84093744D01*
X95717607Y-84201207D01*
X95685402Y-84223258D01*
X95652838Y-84244894D01*
X95648201Y-84248730D01*
X95644304Y-84252000D01*
X91399586Y-84252000D01*
X91379932Y-84235971D01*
X91347433Y-84214378D01*
X91315162Y-84192282D01*
X91309868Y-84189420D01*
X91112904Y-84084693D01*
X91076812Y-84069817D01*
X91040886Y-84054419D01*
X91035137Y-84052640D01*
X91035139Y-84052640D01*
X91035131Y-84052638D01*
X90821584Y-83988164D01*
X90783298Y-83980583D01*
X90745053Y-83972454D01*
X90739070Y-83971825D01*
X90739068Y-83971825D01*
X90517058Y-83950057D01*
X90517052Y-83950057D01*
X90496168Y-83948000D01*
X90371238Y-83948000D01*
X90438199Y-83797708D01*
X89713000Y-83072510D01*
X88987801Y-83797708D01*
X89054762Y-83948000D01*
X88929832Y-83948000D01*
X88907821Y-83950168D01*
X88892983Y-83950168D01*
X88886997Y-83950797D01*
X88665314Y-83975663D01*
X88627110Y-83983784D01*
X88588785Y-83991372D01*
X88583038Y-83993151D01*
X88583032Y-83993153D01*
X88370403Y-84060603D01*
X88334493Y-84075994D01*
X88298381Y-84090878D01*
X88293097Y-84093735D01*
X88293088Y-84093739D01*
X88293081Y-84093744D01*
X88097607Y-84201207D01*
X88065402Y-84223258D01*
X88032838Y-84244894D01*
X88028201Y-84248730D01*
X88024304Y-84252000D01*
X86284000Y-84252000D01*
X86259224Y-84254440D01*
X86235399Y-84261667D01*
X86213443Y-84273403D01*
X86194197Y-84289197D01*
X86178403Y-84308443D01*
X86166667Y-84330399D01*
X86159440Y-84354224D01*
X86157000Y-84379000D01*
X86157000Y-86834598D01*
X86067821Y-86923777D01*
X85894218Y-87183594D01*
X85774637Y-87472286D01*
X85713676Y-87778761D01*
X85713676Y-88091239D01*
X85774637Y-88397714D01*
X85894218Y-88686406D01*
X86067821Y-88946223D01*
X86157000Y-89035402D01*
X86157000Y-90729000D01*
X82728000Y-90729000D01*
X82728000Y-86842078D01*
X83191032Y-86842078D01*
X83191032Y-86995922D01*
X83221045Y-87146809D01*
X83279919Y-87288942D01*
X83365390Y-87416859D01*
X83474173Y-87525642D01*
X83602090Y-87611113D01*
X83744223Y-87669987D01*
X83895110Y-87700000D01*
X84048954Y-87700000D01*
X84199841Y-87669987D01*
X84341974Y-87611113D01*
X84469891Y-87525642D01*
X84578674Y-87416859D01*
X84664145Y-87288942D01*
X84723019Y-87146809D01*
X84753032Y-86995922D01*
X84753032Y-86842078D01*
X84723019Y-86691191D01*
X84664145Y-86549058D01*
X84578674Y-86421141D01*
X84469891Y-86312358D01*
X84341974Y-86226887D01*
X84199841Y-86168013D01*
X84048954Y-86138000D01*
X83895110Y-86138000D01*
X83744223Y-86168013D01*
X83602090Y-86226887D01*
X83474173Y-86312358D01*
X83365390Y-86421141D01*
X83279919Y-86549058D01*
X83221045Y-86691191D01*
X83191032Y-86842078D01*
X82728000Y-86842078D01*
X82728000Y-83159078D01*
X83852000Y-83159078D01*
X83852000Y-83312922D01*
X83882013Y-83463809D01*
X83940887Y-83605942D01*
X84026358Y-83733859D01*
X84135141Y-83842642D01*
X84263058Y-83928113D01*
X84405191Y-83986987D01*
X84556078Y-84017000D01*
X84709922Y-84017000D01*
X84860809Y-83986987D01*
X85002942Y-83928113D01*
X85130859Y-83842642D01*
X85239642Y-83733859D01*
X85268000Y-83691418D01*
X85296358Y-83733859D01*
X85405141Y-83842642D01*
X85533058Y-83928113D01*
X85675191Y-83986987D01*
X85826078Y-84017000D01*
X85979922Y-84017000D01*
X86130809Y-83986987D01*
X86272942Y-83928113D01*
X86400859Y-83842642D01*
X86509642Y-83733859D01*
X86595113Y-83605942D01*
X86653987Y-83463809D01*
X86684000Y-83312922D01*
X86684000Y-83159078D01*
X86653987Y-83008191D01*
X86650358Y-82999429D01*
X88526414Y-82999429D01*
X88552614Y-83230586D01*
X88623408Y-83452189D01*
X88716707Y-83626741D01*
X88897292Y-83707199D01*
X89622490Y-82982000D01*
X89803510Y-82982000D01*
X90528708Y-83707199D01*
X90709293Y-83626741D01*
X90815932Y-83419985D01*
X90880186Y-83196398D01*
X90899586Y-82964571D01*
X90873386Y-82733414D01*
X90802592Y-82511811D01*
X90709293Y-82337259D01*
X90528708Y-82256801D01*
X89803510Y-82982000D01*
X89622490Y-82982000D01*
X88897292Y-82256801D01*
X88716707Y-82337259D01*
X88610068Y-82544015D01*
X88545814Y-82767602D01*
X88526414Y-82999429D01*
X86650358Y-82999429D01*
X86595113Y-82866058D01*
X86509642Y-82738141D01*
X86400859Y-82629358D01*
X86272942Y-82543887D01*
X86130809Y-82485013D01*
X85979922Y-82455000D01*
X85826078Y-82455000D01*
X85675191Y-82485013D01*
X85533058Y-82543887D01*
X85405141Y-82629358D01*
X85296358Y-82738141D01*
X85268000Y-82780582D01*
X85239642Y-82738141D01*
X85130859Y-82629358D01*
X85002942Y-82543887D01*
X84860809Y-82485013D01*
X84709922Y-82455000D01*
X84556078Y-82455000D01*
X84405191Y-82485013D01*
X84263058Y-82543887D01*
X84135141Y-82629358D01*
X84026358Y-82738141D01*
X83940887Y-82866058D01*
X83882013Y-83008191D01*
X83852000Y-83159078D01*
X82728000Y-83159078D01*
X82728000Y-82166292D01*
X88987801Y-82166292D01*
X89713000Y-82891490D01*
X90438199Y-82166292D01*
X90357741Y-81985707D01*
X90150985Y-81879068D01*
X89927398Y-81814814D01*
X89695571Y-81795414D01*
X89464414Y-81821614D01*
X89242811Y-81892408D01*
X89068259Y-81985707D01*
X88987801Y-82166292D01*
X82728000Y-82166292D01*
X82728000Y-81242000D01*
X88530157Y-81242000D01*
X88537513Y-81316689D01*
X88559299Y-81388508D01*
X88594678Y-81454696D01*
X88642289Y-81512711D01*
X88700304Y-81560322D01*
X88766492Y-81595701D01*
X88838311Y-81617487D01*
X88913000Y-81624843D01*
X89553750Y-81623000D01*
X89649000Y-81527750D01*
X89649000Y-80506000D01*
X89777000Y-80506000D01*
X89777000Y-81527750D01*
X89872250Y-81623000D01*
X90513000Y-81624843D01*
X90587689Y-81617487D01*
X90659508Y-81595701D01*
X90725696Y-81560322D01*
X90783711Y-81512711D01*
X90831322Y-81454696D01*
X90866701Y-81388508D01*
X90888487Y-81316689D01*
X90895843Y-81242000D01*
X90894000Y-80601250D01*
X90798750Y-80506000D01*
X89777000Y-80506000D01*
X89649000Y-80506000D01*
X88627250Y-80506000D01*
X88532000Y-80601250D01*
X88530157Y-81242000D01*
X82728000Y-81242000D01*
X82728000Y-79642000D01*
X88530157Y-79642000D01*
X88532000Y-80282750D01*
X88627250Y-80378000D01*
X89649000Y-80378000D01*
X89649000Y-79356250D01*
X89777000Y-79356250D01*
X89777000Y-80378000D01*
X90798750Y-80378000D01*
X90851068Y-80325682D01*
X96152000Y-80325682D01*
X96152000Y-80558318D01*
X96197386Y-80786485D01*
X96286412Y-81001413D01*
X96415658Y-81194843D01*
X96580157Y-81359342D01*
X96773587Y-81488588D01*
X96988515Y-81577614D01*
X97216682Y-81623000D01*
X97449318Y-81623000D01*
X97677485Y-81577614D01*
X97892413Y-81488588D01*
X98085843Y-81359342D01*
X98250342Y-81194843D01*
X98379588Y-81001413D01*
X98468614Y-80786485D01*
X98514000Y-80558318D01*
X98514000Y-80325682D01*
X98471312Y-80111078D01*
X100615992Y-80111078D01*
X100615992Y-80264922D01*
X100646005Y-80415809D01*
X100704879Y-80557942D01*
X100790350Y-80685859D01*
X100899133Y-80794642D01*
X101027050Y-80880113D01*
X101169183Y-80938987D01*
X101320070Y-80969000D01*
X101473914Y-80969000D01*
X101624801Y-80938987D01*
X101766934Y-80880113D01*
X101894851Y-80794642D01*
X102003634Y-80685859D01*
X102089105Y-80557942D01*
X102147979Y-80415809D01*
X102177992Y-80264922D01*
X102177992Y-80111078D01*
X102147979Y-79960191D01*
X102089105Y-79818058D01*
X102003634Y-79690141D01*
X101894851Y-79581358D01*
X101766934Y-79495887D01*
X101624801Y-79437013D01*
X101473914Y-79407000D01*
X101320070Y-79407000D01*
X101169183Y-79437013D01*
X101027050Y-79495887D01*
X100899133Y-79581358D01*
X100790350Y-79690141D01*
X100704879Y-79818058D01*
X100646005Y-79960191D01*
X100615992Y-80111078D01*
X98471312Y-80111078D01*
X98468614Y-80097515D01*
X98379588Y-79882587D01*
X98250342Y-79689157D01*
X98085843Y-79524658D01*
X97892413Y-79395412D01*
X97677485Y-79306386D01*
X97449318Y-79261000D01*
X97216682Y-79261000D01*
X96988515Y-79306386D01*
X96773587Y-79395412D01*
X96580157Y-79524658D01*
X96415658Y-79689157D01*
X96286412Y-79882587D01*
X96197386Y-80097515D01*
X96152000Y-80325682D01*
X90851068Y-80325682D01*
X90894000Y-80282750D01*
X90895843Y-79642000D01*
X90888487Y-79567311D01*
X90866701Y-79495492D01*
X90831322Y-79429304D01*
X90783711Y-79371289D01*
X90725696Y-79323678D01*
X90659508Y-79288299D01*
X90587689Y-79266513D01*
X90513000Y-79259157D01*
X89872250Y-79261000D01*
X89777000Y-79356250D01*
X89649000Y-79356250D01*
X89553750Y-79261000D01*
X88913000Y-79259157D01*
X88838311Y-79266513D01*
X88766492Y-79288299D01*
X88700304Y-79323678D01*
X88642289Y-79371289D01*
X88594678Y-79429304D01*
X88559299Y-79495492D01*
X88537513Y-79567311D01*
X88530157Y-79642000D01*
X82728000Y-79642000D01*
X82728000Y-79222078D01*
X103664000Y-79222078D01*
X103664000Y-79375922D01*
X103694013Y-79526809D01*
X103752887Y-79668942D01*
X103838358Y-79796859D01*
X103947141Y-79905642D01*
X104075058Y-79991113D01*
X104217191Y-80049987D01*
X104368078Y-80080000D01*
X104521922Y-80080000D01*
X104672809Y-80049987D01*
X104814942Y-79991113D01*
X104942859Y-79905642D01*
X105051642Y-79796859D01*
X105137113Y-79668942D01*
X105195987Y-79526809D01*
X105226000Y-79375922D01*
X105226000Y-79222078D01*
X105198551Y-79084078D01*
X107474000Y-79084078D01*
X107474000Y-79237922D01*
X107504013Y-79388809D01*
X107562887Y-79530942D01*
X107648358Y-79658859D01*
X107757141Y-79767642D01*
X107885058Y-79853113D01*
X108027191Y-79911987D01*
X108178078Y-79942000D01*
X108331922Y-79942000D01*
X108482809Y-79911987D01*
X108624942Y-79853113D01*
X108752859Y-79767642D01*
X108861642Y-79658859D01*
X108872906Y-79642000D01*
X109104157Y-79642000D01*
X109106000Y-80282750D01*
X109201250Y-80378000D01*
X110223000Y-80378000D01*
X110223000Y-79356250D01*
X110351000Y-79356250D01*
X110351000Y-80378000D01*
X111372750Y-80378000D01*
X111468000Y-80282750D01*
X111469843Y-79642000D01*
X111462487Y-79567311D01*
X111440701Y-79495492D01*
X111405322Y-79429304D01*
X111357711Y-79371289D01*
X111299696Y-79323678D01*
X111233508Y-79288299D01*
X111161689Y-79266513D01*
X111087000Y-79259157D01*
X110446250Y-79261000D01*
X110351000Y-79356250D01*
X110223000Y-79356250D01*
X110127750Y-79261000D01*
X109487000Y-79259157D01*
X109412311Y-79266513D01*
X109340492Y-79288299D01*
X109274304Y-79323678D01*
X109216289Y-79371289D01*
X109168678Y-79429304D01*
X109133299Y-79495492D01*
X109111513Y-79567311D01*
X109104157Y-79642000D01*
X108872906Y-79642000D01*
X108947113Y-79530942D01*
X109005987Y-79388809D01*
X109036000Y-79237922D01*
X109036000Y-79084078D01*
X109005987Y-78933191D01*
X108947113Y-78791058D01*
X108861642Y-78663141D01*
X108752859Y-78554358D01*
X108624942Y-78468887D01*
X108482809Y-78410013D01*
X108331922Y-78380000D01*
X108178078Y-78380000D01*
X108027191Y-78410013D01*
X107885058Y-78468887D01*
X107757141Y-78554358D01*
X107648358Y-78663141D01*
X107562887Y-78791058D01*
X107504013Y-78933191D01*
X107474000Y-79084078D01*
X105198551Y-79084078D01*
X105195987Y-79071191D01*
X105137113Y-78929058D01*
X105051642Y-78801141D01*
X104942859Y-78692358D01*
X104814942Y-78606887D01*
X104672809Y-78548013D01*
X104521922Y-78518000D01*
X104368078Y-78518000D01*
X104217191Y-78548013D01*
X104075058Y-78606887D01*
X103947141Y-78692358D01*
X103838358Y-78801141D01*
X103752887Y-78929058D01*
X103694013Y-79071191D01*
X103664000Y-79222078D01*
X82728000Y-79222078D01*
X82728000Y-77698078D01*
X83699000Y-77698078D01*
X83699000Y-77851922D01*
X83729013Y-78002809D01*
X83787887Y-78144942D01*
X83873358Y-78272859D01*
X83982141Y-78381642D01*
X84110058Y-78467113D01*
X84252191Y-78525987D01*
X84403078Y-78556000D01*
X84556922Y-78556000D01*
X84707809Y-78525987D01*
X84849942Y-78467113D01*
X84977859Y-78381642D01*
X85086642Y-78272859D01*
X85172113Y-78144942D01*
X85230987Y-78002809D01*
X85241077Y-77952078D01*
X89186000Y-77952078D01*
X89186000Y-78105922D01*
X89216013Y-78256809D01*
X89274887Y-78398942D01*
X89360358Y-78526859D01*
X89469141Y-78635642D01*
X89597058Y-78721113D01*
X89739191Y-78779987D01*
X89890078Y-78810000D01*
X90043922Y-78810000D01*
X90194809Y-78779987D01*
X90336942Y-78721113D01*
X90464859Y-78635642D01*
X90573642Y-78526859D01*
X90659113Y-78398942D01*
X90717987Y-78256809D01*
X90729000Y-78201442D01*
X90740013Y-78256809D01*
X90798887Y-78398942D01*
X90884358Y-78526859D01*
X90993141Y-78635642D01*
X91121058Y-78721113D01*
X91263191Y-78779987D01*
X91414078Y-78810000D01*
X91567922Y-78810000D01*
X91718809Y-78779987D01*
X91860942Y-78721113D01*
X91988859Y-78635642D01*
X92097642Y-78526859D01*
X92183113Y-78398942D01*
X92241987Y-78256809D01*
X92272000Y-78105922D01*
X92272000Y-77952078D01*
X92241987Y-77801191D01*
X92183113Y-77659058D01*
X92097642Y-77531141D01*
X91988859Y-77422358D01*
X91860942Y-77336887D01*
X91718809Y-77278013D01*
X91567922Y-77248000D01*
X91414078Y-77248000D01*
X91263191Y-77278013D01*
X91121058Y-77336887D01*
X90993141Y-77422358D01*
X90884358Y-77531141D01*
X90798887Y-77659058D01*
X90740013Y-77801191D01*
X90729000Y-77856558D01*
X90717987Y-77801191D01*
X90659113Y-77659058D01*
X90573642Y-77531141D01*
X90464859Y-77422358D01*
X90336942Y-77336887D01*
X90194809Y-77278013D01*
X90043922Y-77248000D01*
X89890078Y-77248000D01*
X89739191Y-77278013D01*
X89597058Y-77336887D01*
X89469141Y-77422358D01*
X89360358Y-77531141D01*
X89274887Y-77659058D01*
X89216013Y-77801191D01*
X89186000Y-77952078D01*
X85241077Y-77952078D01*
X85261000Y-77851922D01*
X85261000Y-77698078D01*
X85230987Y-77547191D01*
X85172113Y-77405058D01*
X85086642Y-77277141D01*
X84977859Y-77168358D01*
X84849942Y-77082887D01*
X84707809Y-77024013D01*
X84556922Y-76994000D01*
X84403078Y-76994000D01*
X84252191Y-77024013D01*
X84110058Y-77082887D01*
X83982141Y-77168358D01*
X83873358Y-77277141D01*
X83787887Y-77405058D01*
X83729013Y-77547191D01*
X83699000Y-77698078D01*
X82728000Y-77698078D01*
X82728000Y-76301078D01*
X89186000Y-76301078D01*
X89186000Y-76454922D01*
X89216013Y-76605809D01*
X89274887Y-76747942D01*
X89360358Y-76875859D01*
X89469141Y-76984642D01*
X89597058Y-77070113D01*
X89739191Y-77128987D01*
X89890078Y-77159000D01*
X90043922Y-77159000D01*
X90194809Y-77128987D01*
X90336942Y-77070113D01*
X90464859Y-76984642D01*
X90573642Y-76875859D01*
X90659113Y-76747942D01*
X90717987Y-76605809D01*
X90729000Y-76550442D01*
X90740013Y-76605809D01*
X90798887Y-76747942D01*
X90884358Y-76875859D01*
X90993141Y-76984642D01*
X91121058Y-77070113D01*
X91263191Y-77128987D01*
X91414078Y-77159000D01*
X91567922Y-77159000D01*
X91718809Y-77128987D01*
X91860942Y-77070113D01*
X91988859Y-76984642D01*
X92097642Y-76875859D01*
X92183113Y-76747942D01*
X92241987Y-76605809D01*
X92272000Y-76454922D01*
X92272000Y-76301078D01*
X92241987Y-76150191D01*
X92183113Y-76008058D01*
X92097642Y-75880141D01*
X91988859Y-75771358D01*
X91860942Y-75685887D01*
X91718809Y-75627013D01*
X91567922Y-75597000D01*
X91414078Y-75597000D01*
X91263191Y-75627013D01*
X91121058Y-75685887D01*
X90993141Y-75771358D01*
X90884358Y-75880141D01*
X90798887Y-76008058D01*
X90740013Y-76150191D01*
X90729000Y-76205558D01*
X90717987Y-76150191D01*
X90659113Y-76008058D01*
X90573642Y-75880141D01*
X90464859Y-75771358D01*
X90336942Y-75685887D01*
X90194809Y-75627013D01*
X90043922Y-75597000D01*
X89890078Y-75597000D01*
X89739191Y-75627013D01*
X89597058Y-75685887D01*
X89469141Y-75771358D01*
X89360358Y-75880141D01*
X89274887Y-76008058D01*
X89216013Y-76150191D01*
X89186000Y-76301078D01*
X82728000Y-76301078D01*
X82728000Y-75431000D01*
X97631351Y-75431000D01*
X97597141Y-75453858D01*
G37*
%TD.AperFunction*%
%TD*%
M02*
