%TF.GenerationSoftware,KiCad,Pcbnew,(5.1.10)-1*%
%TF.CreationDate,2022-01-20T19:58:08+07:00*%
%TF.ProjectId,Fan_controller_v3,46616e5f-636f-46e7-9472-6f6c6c65725f,rev?*%
%TF.SameCoordinates,Original*%
%TF.FileFunction,Copper,L1,Top*%
%TF.FilePolarity,Positive*%
%FSLAX46Y46*%
G04 Gerber Fmt 4.6, Leading zero omitted, Abs format (unit mm)*
G04 Created by KiCad (PCBNEW (5.1.10)-1) date 2022-01-20 19:58:08*
%MOMM*%
%LPD*%
G01*
G04 APERTURE LIST*
%TA.AperFunction,ComponentPad*%
%ADD10O,1.000000X1.000000*%
%TD*%
%TA.AperFunction,ComponentPad*%
%ADD11R,1.000000X1.000000*%
%TD*%
%TA.AperFunction,ComponentPad*%
%ADD12C,2.000000*%
%TD*%
%TA.AperFunction,SMDPad,CuDef*%
%ADD13R,0.800000X0.900000*%
%TD*%
%TA.AperFunction,SMDPad,CuDef*%
%ADD14R,0.900000X0.800000*%
%TD*%
%TA.AperFunction,ComponentPad*%
%ADD15R,1.600000X1.600000*%
%TD*%
%TA.AperFunction,ComponentPad*%
%ADD16C,1.600000*%
%TD*%
%TA.AperFunction,ComponentPad*%
%ADD17R,1.700000X1.700000*%
%TD*%
%TA.AperFunction,ComponentPad*%
%ADD18O,1.700000X1.700000*%
%TD*%
%TA.AperFunction,SMDPad,CuDef*%
%ADD19R,1.100000X0.400000*%
%TD*%
%TA.AperFunction,ComponentPad*%
%ADD20O,1.750000X2.250000*%
%TD*%
%TA.AperFunction,ComponentPad*%
%ADD21R,1.750000X2.250000*%
%TD*%
%TA.AperFunction,SMDPad,CuDef*%
%ADD22C,0.020000*%
%TD*%
%TA.AperFunction,ViaPad*%
%ADD23C,0.800000*%
%TD*%
%TA.AperFunction,ViaPad*%
%ADD24C,1.200000*%
%TD*%
%TA.AperFunction,Conductor*%
%ADD25C,0.500000*%
%TD*%
%TA.AperFunction,Conductor*%
%ADD26C,0.800000*%
%TD*%
%TA.AperFunction,Conductor*%
%ADD27C,0.300000*%
%TD*%
%TA.AperFunction,Conductor*%
%ADD28C,1.000000*%
%TD*%
%TA.AperFunction,Conductor*%
%ADD29C,0.600000*%
%TD*%
%TA.AperFunction,Conductor*%
%ADD30C,2.000000*%
%TD*%
%TA.AperFunction,Conductor*%
%ADD31C,0.400000*%
%TD*%
G04 APERTURE END LIST*
D10*
%TO.P,J2,6*%
%TO.N,/scl0*%
X76251000Y-79680000D03*
%TO.P,J2,5*%
%TO.N,/sda0*%
X76251000Y-80950000D03*
%TO.P,J2,4*%
%TO.N,GND1*%
X77521000Y-79680000D03*
%TO.P,J2,3*%
X77521000Y-80950000D03*
%TO.P,J2,2*%
%TO.N,+5P*%
X78791000Y-79680000D03*
D11*
%TO.P,J2,1*%
X78791000Y-80950000D03*
%TD*%
D12*
%TO.P,C5,2*%
%TO.N,Net-(C5-Pad2)*%
X115113000Y-95682000D03*
%TO.P,C5,1*%
%TO.N,Net-(C5-Pad1)*%
X92613000Y-95682000D03*
%TD*%
%TO.P,U1,8*%
%TO.N,+5VP*%
%TA.AperFunction,SMDPad,CuDef*%
G36*
G01*
X87023000Y-83847000D02*
X87323000Y-83847000D01*
G75*
G02*
X87473000Y-83997000I0J-150000D01*
G01*
X87473000Y-85647000D01*
G75*
G02*
X87323000Y-85797000I-150000J0D01*
G01*
X87023000Y-85797000D01*
G75*
G02*
X86873000Y-85647000I0J150000D01*
G01*
X86873000Y-83997000D01*
G75*
G02*
X87023000Y-83847000I150000J0D01*
G01*
G37*
%TD.AperFunction*%
%TO.P,U1,7*%
%TO.N,/I2C_SDA*%
%TA.AperFunction,SMDPad,CuDef*%
G36*
G01*
X85753000Y-83847000D02*
X86053000Y-83847000D01*
G75*
G02*
X86203000Y-83997000I0J-150000D01*
G01*
X86203000Y-85647000D01*
G75*
G02*
X86053000Y-85797000I-150000J0D01*
G01*
X85753000Y-85797000D01*
G75*
G02*
X85603000Y-85647000I0J150000D01*
G01*
X85603000Y-83997000D01*
G75*
G02*
X85753000Y-83847000I150000J0D01*
G01*
G37*
%TD.AperFunction*%
%TO.P,U1,6*%
%TO.N,/I2C_SCL*%
%TA.AperFunction,SMDPad,CuDef*%
G36*
G01*
X84483000Y-83847000D02*
X84783000Y-83847000D01*
G75*
G02*
X84933000Y-83997000I0J-150000D01*
G01*
X84933000Y-85647000D01*
G75*
G02*
X84783000Y-85797000I-150000J0D01*
G01*
X84483000Y-85797000D01*
G75*
G02*
X84333000Y-85647000I0J150000D01*
G01*
X84333000Y-83997000D01*
G75*
G02*
X84483000Y-83847000I150000J0D01*
G01*
G37*
%TD.AperFunction*%
%TO.P,U1,5*%
%TO.N,GND2*%
%TA.AperFunction,SMDPad,CuDef*%
G36*
G01*
X83213000Y-83847000D02*
X83513000Y-83847000D01*
G75*
G02*
X83663000Y-83997000I0J-150000D01*
G01*
X83663000Y-85647000D01*
G75*
G02*
X83513000Y-85797000I-150000J0D01*
G01*
X83213000Y-85797000D01*
G75*
G02*
X83063000Y-85647000I0J150000D01*
G01*
X83063000Y-83997000D01*
G75*
G02*
X83213000Y-83847000I150000J0D01*
G01*
G37*
%TD.AperFunction*%
%TO.P,U1,4*%
%TO.N,GND1*%
%TA.AperFunction,SMDPad,CuDef*%
G36*
G01*
X83213000Y-78897000D02*
X83513000Y-78897000D01*
G75*
G02*
X83663000Y-79047000I0J-150000D01*
G01*
X83663000Y-80697000D01*
G75*
G02*
X83513000Y-80847000I-150000J0D01*
G01*
X83213000Y-80847000D01*
G75*
G02*
X83063000Y-80697000I0J150000D01*
G01*
X83063000Y-79047000D01*
G75*
G02*
X83213000Y-78897000I150000J0D01*
G01*
G37*
%TD.AperFunction*%
%TO.P,U1,3*%
%TO.N,Net-(Q4-Pad2)*%
%TA.AperFunction,SMDPad,CuDef*%
G36*
G01*
X84483000Y-78897000D02*
X84783000Y-78897000D01*
G75*
G02*
X84933000Y-79047000I0J-150000D01*
G01*
X84933000Y-80697000D01*
G75*
G02*
X84783000Y-80847000I-150000J0D01*
G01*
X84483000Y-80847000D01*
G75*
G02*
X84333000Y-80697000I0J150000D01*
G01*
X84333000Y-79047000D01*
G75*
G02*
X84483000Y-78897000I150000J0D01*
G01*
G37*
%TD.AperFunction*%
%TO.P,U1,2*%
%TO.N,Net-(Q3-Pad2)*%
%TA.AperFunction,SMDPad,CuDef*%
G36*
G01*
X85753000Y-78897000D02*
X86053000Y-78897000D01*
G75*
G02*
X86203000Y-79047000I0J-150000D01*
G01*
X86203000Y-80697000D01*
G75*
G02*
X86053000Y-80847000I-150000J0D01*
G01*
X85753000Y-80847000D01*
G75*
G02*
X85603000Y-80697000I0J150000D01*
G01*
X85603000Y-79047000D01*
G75*
G02*
X85753000Y-78897000I150000J0D01*
G01*
G37*
%TD.AperFunction*%
%TO.P,U1,1*%
%TO.N,+5P*%
%TA.AperFunction,SMDPad,CuDef*%
G36*
G01*
X87023000Y-78897000D02*
X87323000Y-78897000D01*
G75*
G02*
X87473000Y-79047000I0J-150000D01*
G01*
X87473000Y-80697000D01*
G75*
G02*
X87323000Y-80847000I-150000J0D01*
G01*
X87023000Y-80847000D01*
G75*
G02*
X86873000Y-80697000I0J150000D01*
G01*
X86873000Y-79047000D01*
G75*
G02*
X87023000Y-78897000I150000J0D01*
G01*
G37*
%TD.AperFunction*%
%TD*%
%TO.P,R16,2*%
%TO.N,GND2*%
%TA.AperFunction,SMDPad,CuDef*%
G36*
G01*
X108617000Y-76272000D02*
X108617000Y-75722000D01*
G75*
G02*
X108817000Y-75522000I200000J0D01*
G01*
X109217000Y-75522000D01*
G75*
G02*
X109417000Y-75722000I0J-200000D01*
G01*
X109417000Y-76272000D01*
G75*
G02*
X109217000Y-76472000I-200000J0D01*
G01*
X108817000Y-76472000D01*
G75*
G02*
X108617000Y-76272000I0J200000D01*
G01*
G37*
%TD.AperFunction*%
%TO.P,R16,1*%
%TO.N,Net-(Q6-Pad1)*%
%TA.AperFunction,SMDPad,CuDef*%
G36*
G01*
X106967000Y-76272000D02*
X106967000Y-75722000D01*
G75*
G02*
X107167000Y-75522000I200000J0D01*
G01*
X107567000Y-75522000D01*
G75*
G02*
X107767000Y-75722000I0J-200000D01*
G01*
X107767000Y-76272000D01*
G75*
G02*
X107567000Y-76472000I-200000J0D01*
G01*
X107167000Y-76472000D01*
G75*
G02*
X106967000Y-76272000I0J200000D01*
G01*
G37*
%TD.AperFunction*%
%TD*%
%TO.P,R14,2*%
%TO.N,/K2_rst*%
%TA.AperFunction,SMDPad,CuDef*%
G36*
G01*
X108616000Y-78113500D02*
X108616000Y-77563500D01*
G75*
G02*
X108816000Y-77363500I200000J0D01*
G01*
X109216000Y-77363500D01*
G75*
G02*
X109416000Y-77563500I0J-200000D01*
G01*
X109416000Y-78113500D01*
G75*
G02*
X109216000Y-78313500I-200000J0D01*
G01*
X108816000Y-78313500D01*
G75*
G02*
X108616000Y-78113500I0J200000D01*
G01*
G37*
%TD.AperFunction*%
%TO.P,R14,1*%
%TO.N,Net-(Q6-Pad1)*%
%TA.AperFunction,SMDPad,CuDef*%
G36*
G01*
X106966000Y-78113500D02*
X106966000Y-77563500D01*
G75*
G02*
X107166000Y-77363500I200000J0D01*
G01*
X107566000Y-77363500D01*
G75*
G02*
X107766000Y-77563500I0J-200000D01*
G01*
X107766000Y-78113500D01*
G75*
G02*
X107566000Y-78313500I-200000J0D01*
G01*
X107166000Y-78313500D01*
G75*
G02*
X106966000Y-78113500I0J200000D01*
G01*
G37*
%TD.AperFunction*%
%TD*%
%TO.P,R4,2*%
%TO.N,GND2*%
%TA.AperFunction,SMDPad,CuDef*%
G36*
G01*
X100019000Y-75722000D02*
X100019000Y-76272000D01*
G75*
G02*
X99819000Y-76472000I-200000J0D01*
G01*
X99419000Y-76472000D01*
G75*
G02*
X99219000Y-76272000I0J200000D01*
G01*
X99219000Y-75722000D01*
G75*
G02*
X99419000Y-75522000I200000J0D01*
G01*
X99819000Y-75522000D01*
G75*
G02*
X100019000Y-75722000I0J-200000D01*
G01*
G37*
%TD.AperFunction*%
%TO.P,R4,1*%
%TO.N,Net-(Q2-Pad1)*%
%TA.AperFunction,SMDPad,CuDef*%
G36*
G01*
X101669000Y-75722000D02*
X101669000Y-76272000D01*
G75*
G02*
X101469000Y-76472000I-200000J0D01*
G01*
X101069000Y-76472000D01*
G75*
G02*
X100869000Y-76272000I0J200000D01*
G01*
X100869000Y-75722000D01*
G75*
G02*
X101069000Y-75522000I200000J0D01*
G01*
X101469000Y-75522000D01*
G75*
G02*
X101669000Y-75722000I0J-200000D01*
G01*
G37*
%TD.AperFunction*%
%TD*%
%TO.P,R2,2*%
%TO.N,/K1_rst*%
%TA.AperFunction,SMDPad,CuDef*%
G36*
G01*
X100869000Y-77796000D02*
X100869000Y-77246000D01*
G75*
G02*
X101069000Y-77046000I200000J0D01*
G01*
X101469000Y-77046000D01*
G75*
G02*
X101669000Y-77246000I0J-200000D01*
G01*
X101669000Y-77796000D01*
G75*
G02*
X101469000Y-77996000I-200000J0D01*
G01*
X101069000Y-77996000D01*
G75*
G02*
X100869000Y-77796000I0J200000D01*
G01*
G37*
%TD.AperFunction*%
%TO.P,R2,1*%
%TO.N,Net-(Q2-Pad1)*%
%TA.AperFunction,SMDPad,CuDef*%
G36*
G01*
X99219000Y-77796000D02*
X99219000Y-77246000D01*
G75*
G02*
X99419000Y-77046000I200000J0D01*
G01*
X99819000Y-77046000D01*
G75*
G02*
X100019000Y-77246000I0J-200000D01*
G01*
X100019000Y-77796000D01*
G75*
G02*
X99819000Y-77996000I-200000J0D01*
G01*
X99419000Y-77996000D01*
G75*
G02*
X99219000Y-77796000I0J200000D01*
G01*
G37*
%TD.AperFunction*%
%TD*%
D13*
%TO.P,Q6,3*%
%TO.N,Net-(Q6-Pad3)*%
X111491000Y-78060500D03*
%TO.P,Q6,2*%
%TO.N,GND2*%
X110541000Y-76060500D03*
%TO.P,Q6,1*%
%TO.N,Net-(Q6-Pad1)*%
X112441000Y-76060500D03*
%TD*%
D14*
%TO.P,Q2,3*%
%TO.N,Net-(Q2-Pad3)*%
X96095000Y-77010500D03*
%TO.P,Q2,2*%
%TO.N,GND2*%
X98095000Y-76060500D03*
%TO.P,Q2,1*%
%TO.N,Net-(Q2-Pad1)*%
X98095000Y-77960500D03*
%TD*%
%TO.P,C10,2*%
%TO.N,+5VP*%
%TA.AperFunction,SMDPad,CuDef*%
G36*
G01*
X85072000Y-87169000D02*
X85072000Y-86669000D01*
G75*
G02*
X85297000Y-86444000I225000J0D01*
G01*
X85747000Y-86444000D01*
G75*
G02*
X85972000Y-86669000I0J-225000D01*
G01*
X85972000Y-87169000D01*
G75*
G02*
X85747000Y-87394000I-225000J0D01*
G01*
X85297000Y-87394000D01*
G75*
G02*
X85072000Y-87169000I0J225000D01*
G01*
G37*
%TD.AperFunction*%
%TO.P,C10,1*%
%TO.N,GND2*%
%TA.AperFunction,SMDPad,CuDef*%
G36*
G01*
X83522000Y-87169000D02*
X83522000Y-86669000D01*
G75*
G02*
X83747000Y-86444000I225000J0D01*
G01*
X84197000Y-86444000D01*
G75*
G02*
X84422000Y-86669000I0J-225000D01*
G01*
X84422000Y-87169000D01*
G75*
G02*
X84197000Y-87394000I-225000J0D01*
G01*
X83747000Y-87394000D01*
G75*
G02*
X83522000Y-87169000I0J225000D01*
G01*
G37*
%TD.AperFunction*%
%TD*%
%TO.P,C8,2*%
%TO.N,+5P*%
%TA.AperFunction,SMDPad,CuDef*%
G36*
G01*
X85580000Y-78025000D02*
X85580000Y-77525000D01*
G75*
G02*
X85805000Y-77300000I225000J0D01*
G01*
X86255000Y-77300000D01*
G75*
G02*
X86480000Y-77525000I0J-225000D01*
G01*
X86480000Y-78025000D01*
G75*
G02*
X86255000Y-78250000I-225000J0D01*
G01*
X85805000Y-78250000D01*
G75*
G02*
X85580000Y-78025000I0J225000D01*
G01*
G37*
%TD.AperFunction*%
%TO.P,C8,1*%
%TO.N,GND1*%
%TA.AperFunction,SMDPad,CuDef*%
G36*
G01*
X84030000Y-78025000D02*
X84030000Y-77525000D01*
G75*
G02*
X84255000Y-77300000I225000J0D01*
G01*
X84705000Y-77300000D01*
G75*
G02*
X84930000Y-77525000I0J-225000D01*
G01*
X84930000Y-78025000D01*
G75*
G02*
X84705000Y-78250000I-225000J0D01*
G01*
X84255000Y-78250000D01*
G75*
G02*
X84030000Y-78025000I0J225000D01*
G01*
G37*
%TD.AperFunction*%
%TD*%
D15*
%TO.P,K2,1*%
%TO.N,+5VP*%
X110287000Y-80442000D03*
D16*
%TO.P,K2,2*%
X110287000Y-82982000D03*
%TO.P,K2,4*%
%TO.N,Net-(J1-Pad3)*%
X110287000Y-88062000D03*
%TO.P,K2,6*%
%TO.N,Net-(C7-Pad1)*%
X110287000Y-93142000D03*
%TO.P,K2,8*%
%TO.N,Net-(K2-Pad8)*%
X110287000Y-98222000D03*
%TO.P,K2,9*%
X117907000Y-98222000D03*
%TO.P,K2,11*%
%TO.N,Net-(C5-Pad2)*%
X117907000Y-93142000D03*
%TO.P,K2,13*%
%TO.N,Net-(C7-Pad1)*%
X117907000Y-88062000D03*
%TO.P,K2,15*%
%TO.N,Net-(C12-Pad2)*%
X117907000Y-82982000D03*
%TO.P,K2,16*%
%TO.N,Net-(C11-Pad2)*%
X117907000Y-80442000D03*
%TD*%
D17*
%TO.P,J1,1*%
%TO.N,Net-(J1-Pad1)*%
X101270000Y-97968000D03*
D18*
%TO.P,J1,2*%
%TO.N,N/C*%
X103810000Y-97968000D03*
%TO.P,J1,3*%
%TO.N,Net-(J1-Pad3)*%
X106350000Y-97968000D03*
%TD*%
D19*
%TO.P,U2,8*%
%TO.N,+5VP*%
X106722000Y-80991000D03*
%TO.P,U2,7*%
%TO.N,/I2C_SDA*%
X106722000Y-81641000D03*
%TO.P,U2,6*%
%TO.N,/I2C_SCL*%
X106722000Y-82291000D03*
%TO.P,U2,5*%
%TO.N,/K2_set*%
X106722000Y-82941000D03*
%TO.P,U2,4*%
%TO.N,GND2*%
X102422000Y-82941000D03*
%TO.P,U2,3*%
%TO.N,/K2_rst*%
X102422000Y-82291000D03*
%TO.P,U2,2*%
%TO.N,/K1_set*%
X102422000Y-81641000D03*
%TO.P,U2,1*%
%TO.N,/K1_rst*%
X102422000Y-80991000D03*
%TD*%
D12*
%TO.P,TP1,1*%
%TO.N,GND2*%
X81140500Y-91618000D03*
%TD*%
%TO.P,R12,2*%
%TO.N,+5P*%
%TA.AperFunction,SMDPad,CuDef*%
G36*
G01*
X80802000Y-84359000D02*
X81352000Y-84359000D01*
G75*
G02*
X81552000Y-84559000I0J-200000D01*
G01*
X81552000Y-84959000D01*
G75*
G02*
X81352000Y-85159000I-200000J0D01*
G01*
X80802000Y-85159000D01*
G75*
G02*
X80602000Y-84959000I0J200000D01*
G01*
X80602000Y-84559000D01*
G75*
G02*
X80802000Y-84359000I200000J0D01*
G01*
G37*
%TD.AperFunction*%
%TO.P,R12,1*%
%TO.N,Net-(Q4-Pad2)*%
%TA.AperFunction,SMDPad,CuDef*%
G36*
G01*
X80802000Y-82709000D02*
X81352000Y-82709000D01*
G75*
G02*
X81552000Y-82909000I0J-200000D01*
G01*
X81552000Y-83309000D01*
G75*
G02*
X81352000Y-83509000I-200000J0D01*
G01*
X80802000Y-83509000D01*
G75*
G02*
X80602000Y-83309000I0J200000D01*
G01*
X80602000Y-82909000D01*
G75*
G02*
X80802000Y-82709000I200000J0D01*
G01*
G37*
%TD.AperFunction*%
%TD*%
%TO.P,R11,2*%
%TO.N,+5P*%
%TA.AperFunction,SMDPad,CuDef*%
G36*
G01*
X80802000Y-88042000D02*
X81352000Y-88042000D01*
G75*
G02*
X81552000Y-88242000I0J-200000D01*
G01*
X81552000Y-88642000D01*
G75*
G02*
X81352000Y-88842000I-200000J0D01*
G01*
X80802000Y-88842000D01*
G75*
G02*
X80602000Y-88642000I0J200000D01*
G01*
X80602000Y-88242000D01*
G75*
G02*
X80802000Y-88042000I200000J0D01*
G01*
G37*
%TD.AperFunction*%
%TO.P,R11,1*%
%TO.N,Net-(Q3-Pad2)*%
%TA.AperFunction,SMDPad,CuDef*%
G36*
G01*
X80802000Y-86392000D02*
X81352000Y-86392000D01*
G75*
G02*
X81552000Y-86592000I0J-200000D01*
G01*
X81552000Y-86992000D01*
G75*
G02*
X81352000Y-87192000I-200000J0D01*
G01*
X80802000Y-87192000D01*
G75*
G02*
X80602000Y-86992000I0J200000D01*
G01*
X80602000Y-86592000D01*
G75*
G02*
X80802000Y-86392000I200000J0D01*
G01*
G37*
%TD.AperFunction*%
%TD*%
%TO.P,R8,2*%
%TO.N,+5P*%
%TA.AperFunction,SMDPad,CuDef*%
G36*
G01*
X76272000Y-85986500D02*
X75722000Y-85986500D01*
G75*
G02*
X75522000Y-85786500I0J200000D01*
G01*
X75522000Y-85386500D01*
G75*
G02*
X75722000Y-85186500I200000J0D01*
G01*
X76272000Y-85186500D01*
G75*
G02*
X76472000Y-85386500I0J-200000D01*
G01*
X76472000Y-85786500D01*
G75*
G02*
X76272000Y-85986500I-200000J0D01*
G01*
G37*
%TD.AperFunction*%
%TO.P,R8,1*%
%TO.N,/scl0*%
%TA.AperFunction,SMDPad,CuDef*%
G36*
G01*
X76272000Y-87636500D02*
X75722000Y-87636500D01*
G75*
G02*
X75522000Y-87436500I0J200000D01*
G01*
X75522000Y-87036500D01*
G75*
G02*
X75722000Y-86836500I200000J0D01*
G01*
X76272000Y-86836500D01*
G75*
G02*
X76472000Y-87036500I0J-200000D01*
G01*
X76472000Y-87436500D01*
G75*
G02*
X76272000Y-87636500I-200000J0D01*
G01*
G37*
%TD.AperFunction*%
%TD*%
%TO.P,R7,2*%
%TO.N,+5P*%
%TA.AperFunction,SMDPad,CuDef*%
G36*
G01*
X75722000Y-89947000D02*
X76272000Y-89947000D01*
G75*
G02*
X76472000Y-90147000I0J-200000D01*
G01*
X76472000Y-90547000D01*
G75*
G02*
X76272000Y-90747000I-200000J0D01*
G01*
X75722000Y-90747000D01*
G75*
G02*
X75522000Y-90547000I0J200000D01*
G01*
X75522000Y-90147000D01*
G75*
G02*
X75722000Y-89947000I200000J0D01*
G01*
G37*
%TD.AperFunction*%
%TO.P,R7,1*%
%TO.N,/sda0*%
%TA.AperFunction,SMDPad,CuDef*%
G36*
G01*
X75722000Y-88297000D02*
X76272000Y-88297000D01*
G75*
G02*
X76472000Y-88497000I0J-200000D01*
G01*
X76472000Y-88897000D01*
G75*
G02*
X76272000Y-89097000I-200000J0D01*
G01*
X75722000Y-89097000D01*
G75*
G02*
X75522000Y-88897000I0J200000D01*
G01*
X75522000Y-88497000D01*
G75*
G02*
X75722000Y-88297000I200000J0D01*
G01*
G37*
%TD.AperFunction*%
%TD*%
%TO.P,R20,2*%
%TO.N,Net-(C12-Pad2)*%
%TA.AperFunction,SMDPad,CuDef*%
G36*
G01*
X116870000Y-77629000D02*
X117420000Y-77629000D01*
G75*
G02*
X117620000Y-77829000I0J-200000D01*
G01*
X117620000Y-78229000D01*
G75*
G02*
X117420000Y-78429000I-200000J0D01*
G01*
X116870000Y-78429000D01*
G75*
G02*
X116670000Y-78229000I0J200000D01*
G01*
X116670000Y-77829000D01*
G75*
G02*
X116870000Y-77629000I200000J0D01*
G01*
G37*
%TD.AperFunction*%
%TO.P,R20,1*%
%TO.N,Net-(C12-Pad1)*%
%TA.AperFunction,SMDPad,CuDef*%
G36*
G01*
X116870000Y-75979000D02*
X117420000Y-75979000D01*
G75*
G02*
X117620000Y-76179000I0J-200000D01*
G01*
X117620000Y-76579000D01*
G75*
G02*
X117420000Y-76779000I-200000J0D01*
G01*
X116870000Y-76779000D01*
G75*
G02*
X116670000Y-76579000I0J200000D01*
G01*
X116670000Y-76179000D01*
G75*
G02*
X116870000Y-75979000I200000J0D01*
G01*
G37*
%TD.AperFunction*%
%TD*%
%TO.P,R19,2*%
%TO.N,Net-(C11-Pad2)*%
%TA.AperFunction,SMDPad,CuDef*%
G36*
G01*
X118394000Y-77629000D02*
X118944000Y-77629000D01*
G75*
G02*
X119144000Y-77829000I0J-200000D01*
G01*
X119144000Y-78229000D01*
G75*
G02*
X118944000Y-78429000I-200000J0D01*
G01*
X118394000Y-78429000D01*
G75*
G02*
X118194000Y-78229000I0J200000D01*
G01*
X118194000Y-77829000D01*
G75*
G02*
X118394000Y-77629000I200000J0D01*
G01*
G37*
%TD.AperFunction*%
%TO.P,R19,1*%
%TO.N,Net-(C11-Pad1)*%
%TA.AperFunction,SMDPad,CuDef*%
G36*
G01*
X118394000Y-75979000D02*
X118944000Y-75979000D01*
G75*
G02*
X119144000Y-76179000I0J-200000D01*
G01*
X119144000Y-76579000D01*
G75*
G02*
X118944000Y-76779000I-200000J0D01*
G01*
X118394000Y-76779000D01*
G75*
G02*
X118194000Y-76579000I0J200000D01*
G01*
X118194000Y-76179000D01*
G75*
G02*
X118394000Y-75979000I200000J0D01*
G01*
G37*
%TD.AperFunction*%
%TD*%
%TO.P,R10,2*%
%TO.N,Net-(C4-Pad2)*%
%TA.AperFunction,SMDPad,CuDef*%
G36*
G01*
X89692000Y-77629000D02*
X90242000Y-77629000D01*
G75*
G02*
X90442000Y-77829000I0J-200000D01*
G01*
X90442000Y-78229000D01*
G75*
G02*
X90242000Y-78429000I-200000J0D01*
G01*
X89692000Y-78429000D01*
G75*
G02*
X89492000Y-78229000I0J200000D01*
G01*
X89492000Y-77829000D01*
G75*
G02*
X89692000Y-77629000I200000J0D01*
G01*
G37*
%TD.AperFunction*%
%TO.P,R10,1*%
%TO.N,Net-(C4-Pad1)*%
%TA.AperFunction,SMDPad,CuDef*%
G36*
G01*
X89692000Y-75979000D02*
X90242000Y-75979000D01*
G75*
G02*
X90442000Y-76179000I0J-200000D01*
G01*
X90442000Y-76579000D01*
G75*
G02*
X90242000Y-76779000I-200000J0D01*
G01*
X89692000Y-76779000D01*
G75*
G02*
X89492000Y-76579000I0J200000D01*
G01*
X89492000Y-76179000D01*
G75*
G02*
X89692000Y-75979000I200000J0D01*
G01*
G37*
%TD.AperFunction*%
%TD*%
%TO.P,R9,2*%
%TO.N,Net-(C3-Pad2)*%
%TA.AperFunction,SMDPad,CuDef*%
G36*
G01*
X91216000Y-77629000D02*
X91766000Y-77629000D01*
G75*
G02*
X91966000Y-77829000I0J-200000D01*
G01*
X91966000Y-78229000D01*
G75*
G02*
X91766000Y-78429000I-200000J0D01*
G01*
X91216000Y-78429000D01*
G75*
G02*
X91016000Y-78229000I0J200000D01*
G01*
X91016000Y-77829000D01*
G75*
G02*
X91216000Y-77629000I200000J0D01*
G01*
G37*
%TD.AperFunction*%
%TO.P,R9,1*%
%TO.N,Net-(C3-Pad1)*%
%TA.AperFunction,SMDPad,CuDef*%
G36*
G01*
X91216000Y-75979000D02*
X91766000Y-75979000D01*
G75*
G02*
X91966000Y-76179000I0J-200000D01*
G01*
X91966000Y-76579000D01*
G75*
G02*
X91766000Y-76779000I-200000J0D01*
G01*
X91216000Y-76779000D01*
G75*
G02*
X91016000Y-76579000I0J200000D01*
G01*
X91016000Y-76179000D01*
G75*
G02*
X91216000Y-75979000I200000J0D01*
G01*
G37*
%TD.AperFunction*%
%TD*%
%TO.P,R18,2*%
%TO.N,Net-(C12-Pad1)*%
%TA.AperFunction,SMDPad,CuDef*%
G36*
G01*
X115221000Y-76653000D02*
X115221000Y-76103000D01*
G75*
G02*
X115421000Y-75903000I200000J0D01*
G01*
X115821000Y-75903000D01*
G75*
G02*
X116021000Y-76103000I0J-200000D01*
G01*
X116021000Y-76653000D01*
G75*
G02*
X115821000Y-76853000I-200000J0D01*
G01*
X115421000Y-76853000D01*
G75*
G02*
X115221000Y-76653000I0J200000D01*
G01*
G37*
%TD.AperFunction*%
%TO.P,R18,1*%
%TO.N,Net-(Q6-Pad3)*%
%TA.AperFunction,SMDPad,CuDef*%
G36*
G01*
X113571000Y-76653000D02*
X113571000Y-76103000D01*
G75*
G02*
X113771000Y-75903000I200000J0D01*
G01*
X114171000Y-75903000D01*
G75*
G02*
X114371000Y-76103000I0J-200000D01*
G01*
X114371000Y-76653000D01*
G75*
G02*
X114171000Y-76853000I-200000J0D01*
G01*
X113771000Y-76853000D01*
G75*
G02*
X113571000Y-76653000I0J200000D01*
G01*
G37*
%TD.AperFunction*%
%TD*%
%TO.P,R6,2*%
%TO.N,Net-(C4-Pad1)*%
%TA.AperFunction,SMDPad,CuDef*%
G36*
G01*
X93415000Y-76103000D02*
X93415000Y-76653000D01*
G75*
G02*
X93215000Y-76853000I-200000J0D01*
G01*
X92815000Y-76853000D01*
G75*
G02*
X92615000Y-76653000I0J200000D01*
G01*
X92615000Y-76103000D01*
G75*
G02*
X92815000Y-75903000I200000J0D01*
G01*
X93215000Y-75903000D01*
G75*
G02*
X93415000Y-76103000I0J-200000D01*
G01*
G37*
%TD.AperFunction*%
%TO.P,R6,1*%
%TO.N,Net-(Q2-Pad3)*%
%TA.AperFunction,SMDPad,CuDef*%
G36*
G01*
X95065000Y-76103000D02*
X95065000Y-76653000D01*
G75*
G02*
X94865000Y-76853000I-200000J0D01*
G01*
X94465000Y-76853000D01*
G75*
G02*
X94265000Y-76653000I0J200000D01*
G01*
X94265000Y-76103000D01*
G75*
G02*
X94465000Y-75903000I200000J0D01*
G01*
X94865000Y-75903000D01*
G75*
G02*
X95065000Y-76103000I0J-200000D01*
G01*
G37*
%TD.AperFunction*%
%TD*%
D14*
%TO.P,Q4,3*%
%TO.N,/scl0*%
X77521000Y-83932000D03*
%TO.P,Q4,2*%
%TO.N,Net-(Q4-Pad2)*%
X79521000Y-82982000D03*
%TO.P,Q4,1*%
%TO.N,+5P*%
X79521000Y-84882000D03*
%TD*%
%TO.P,Q3,3*%
%TO.N,/sda0*%
X77521000Y-87554000D03*
%TO.P,Q3,2*%
%TO.N,Net-(Q3-Pad2)*%
X79521000Y-86604000D03*
%TO.P,Q3,1*%
%TO.N,+5P*%
X79521000Y-88504000D03*
%TD*%
D20*
%TO.P,PS1,4*%
%TO.N,Net-(C6-Pad2)*%
X85141000Y-98349000D03*
%TO.P,PS1,3*%
%TO.N,GND2*%
X82601000Y-98349000D03*
%TO.P,PS1,2*%
%TO.N,+5P*%
X80061000Y-98349000D03*
D21*
%TO.P,PS1,1*%
%TO.N,GND1*%
X77521000Y-98349000D03*
%TD*%
D16*
%TO.P,K1,16*%
%TO.N,Net-(C3-Pad2)*%
X97333000Y-80442000D03*
%TO.P,K1,15*%
%TO.N,Net-(C4-Pad2)*%
X97333000Y-82982000D03*
%TO.P,K1,13*%
%TO.N,Net-(J1-Pad1)*%
X97333000Y-88062000D03*
%TO.P,K1,11*%
%TO.N,Net-(C5-Pad2)*%
X97333000Y-93142000D03*
%TO.P,K1,9*%
%TO.N,Net-(K1-Pad8)*%
X97333000Y-98222000D03*
%TO.P,K1,8*%
X89713000Y-98222000D03*
%TO.P,K1,6*%
%TO.N,Net-(C7-Pad1)*%
X89713000Y-93142000D03*
%TO.P,K1,4*%
%TO.N,Net-(C5-Pad1)*%
X89713000Y-88062000D03*
%TO.P,K1,2*%
%TO.N,+5VP*%
X89713000Y-82982000D03*
D15*
%TO.P,K1,1*%
X89713000Y-80442000D03*
%TD*%
%TA.AperFunction,SMDPad,CuDef*%
D22*
%TO.P,JP1,1*%
%TO.N,Net-(C6-Pad2)*%
G36*
X83871000Y-91179000D02*
G01*
X84621000Y-91679000D01*
X84621000Y-92679000D01*
X83121000Y-92679000D01*
X83121000Y-91679000D01*
X83871000Y-91179000D01*
G37*
%TD.AperFunction*%
%TA.AperFunction,SMDPad,CuDef*%
%TO.P,JP1,2*%
%TO.N,+5VP*%
G36*
X84621000Y-90229000D02*
G01*
X84621000Y-91379000D01*
X83871000Y-90879000D01*
X83121000Y-91379000D01*
X83121000Y-90229000D01*
X84621000Y-90229000D01*
G37*
%TD.AperFunction*%
%TD*%
D12*
%TO.P,C7,2*%
%TO.N,Net-(C5-Pad2)*%
X123241000Y-96545000D03*
%TO.P,C7,1*%
%TO.N,Net-(C7-Pad1)*%
X123241000Y-79045000D03*
%TD*%
%TO.P,C13,2*%
%TO.N,GND2*%
%TA.AperFunction,SMDPad,CuDef*%
G36*
G01*
X104895000Y-79049000D02*
X104895000Y-79549000D01*
G75*
G02*
X104670000Y-79774000I-225000J0D01*
G01*
X104220000Y-79774000D01*
G75*
G02*
X103995000Y-79549000I0J225000D01*
G01*
X103995000Y-79049000D01*
G75*
G02*
X104220000Y-78824000I225000J0D01*
G01*
X104670000Y-78824000D01*
G75*
G02*
X104895000Y-79049000I0J-225000D01*
G01*
G37*
%TD.AperFunction*%
%TO.P,C13,1*%
%TO.N,+5VP*%
%TA.AperFunction,SMDPad,CuDef*%
G36*
G01*
X106445000Y-79049000D02*
X106445000Y-79549000D01*
G75*
G02*
X106220000Y-79774000I-225000J0D01*
G01*
X105770000Y-79774000D01*
G75*
G02*
X105545000Y-79549000I0J225000D01*
G01*
X105545000Y-79049000D01*
G75*
G02*
X105770000Y-78824000I225000J0D01*
G01*
X106220000Y-78824000D01*
G75*
G02*
X106445000Y-79049000I0J-225000D01*
G01*
G37*
%TD.AperFunction*%
%TD*%
D23*
%TO.N,Net-(C3-Pad2)*%
X91491000Y-78029000D03*
%TO.N,Net-(C3-Pad1)*%
X91491000Y-76378000D03*
%TO.N,Net-(C4-Pad2)*%
X89967000Y-78029000D03*
%TO.N,Net-(C4-Pad1)*%
X89967000Y-76378000D03*
%TO.N,GND1*%
X84480000Y-77775000D03*
%TO.N,+5P*%
X81077000Y-88443000D03*
X81077000Y-84760000D03*
%TO.N,Net-(C11-Pad1)*%
X118669000Y-76378000D03*
%TO.N,GND2*%
X104445000Y-79299000D03*
X99619000Y-75997000D03*
X109017000Y-75997000D03*
X98095000Y-76060500D03*
X110541000Y-76060500D03*
X83972032Y-86919000D03*
%TO.N,+5VP*%
X105995000Y-79299000D03*
D24*
X85395006Y-89840000D03*
D23*
%TO.N,/scl0*%
X77521000Y-83932000D03*
X75997000Y-87236500D03*
%TO.N,/sda0*%
X75997000Y-88697000D03*
%TO.N,/I2C_SDA*%
X105615886Y-81416284D03*
X85903000Y-83236000D03*
%TO.N,/I2C_SCL*%
X105615814Y-82515892D03*
X84633000Y-83236000D03*
%TO.N,/K1_set*%
X101396992Y-80188000D03*
%TO.N,/K2_set*%
X107833000Y-82941000D03*
%TO.N,/K2_rst*%
X108255000Y-79161000D03*
X103497423Y-82130732D03*
D24*
%TO.N,Net-(C6-Pad2)*%
X83871000Y-94158000D03*
D23*
%TO.N,Net-(C11-Pad2)*%
X118669000Y-78029000D03*
%TO.N,Net-(C12-Pad2)*%
X117145000Y-78029000D03*
%TO.N,Net-(C12-Pad1)*%
X117145000Y-76378000D03*
%TD*%
D25*
%TO.N,Net-(C3-Pad2)*%
X93904000Y-80442000D02*
X91491000Y-78029000D01*
X97333000Y-80442000D02*
X93904000Y-80442000D01*
%TO.N,Net-(C4-Pad2)*%
X94920000Y-82982000D02*
X89967000Y-78029000D01*
X97333000Y-82982000D02*
X94920000Y-82982000D01*
%TO.N,Net-(C4-Pad1)*%
X90818001Y-75527999D02*
X89967000Y-76379000D01*
X92164999Y-75527999D02*
X90818001Y-75527999D01*
X93015000Y-76378000D02*
X92164999Y-75527999D01*
%TO.N,GND1*%
X83363000Y-78892000D02*
X84480000Y-77775000D01*
X83363000Y-79872000D02*
X83363000Y-78892000D01*
%TO.N,+5P*%
X87173000Y-78918000D02*
X86030000Y-77775000D01*
X87173000Y-79872000D02*
X87173000Y-78918000D01*
X81015000Y-88504000D02*
X81077000Y-88442000D01*
X79521000Y-88504000D02*
X81015000Y-88504000D01*
X77840000Y-88504000D02*
X75997000Y-90347000D01*
X79521000Y-88504000D02*
X77840000Y-88504000D01*
X79521000Y-84882000D02*
X80954000Y-84882000D01*
X80954000Y-84882000D02*
X81077000Y-84759000D01*
X76701500Y-84882000D02*
X75997000Y-85586500D01*
X79521000Y-84882000D02*
X76701500Y-84882000D01*
D26*
X81771010Y-76699990D02*
X78791000Y-79680000D01*
X85429990Y-76699990D02*
X81771010Y-76699990D01*
X86030000Y-77300000D02*
X85429990Y-76699990D01*
X86030000Y-77775000D02*
X86030000Y-77300000D01*
D25*
%TO.N,GND2*%
X83363000Y-86309968D02*
X83972032Y-86919000D01*
X83363000Y-84822000D02*
X83363000Y-86309968D01*
D27*
X104445000Y-82293157D02*
X104445000Y-79299000D01*
X103797157Y-82941000D02*
X104445000Y-82293157D01*
X102422000Y-82941000D02*
X103797157Y-82941000D01*
D28*
%TO.N,+5VP*%
X110287000Y-80442000D02*
X110287000Y-82982000D01*
X89713000Y-80442000D02*
X89713000Y-82982000D01*
D27*
X83871000Y-90221000D02*
X83871000Y-90729000D01*
D29*
X109906000Y-80061000D02*
X110287000Y-80442000D01*
X107493000Y-80061000D02*
X109906000Y-80061000D01*
X106731000Y-79299000D02*
X107493000Y-80061000D01*
X105995000Y-79299000D02*
X105995000Y-79299000D01*
D25*
X86051000Y-86919000D02*
X85522000Y-86919000D01*
X87173000Y-85797000D02*
X86051000Y-86919000D01*
X87173000Y-84822000D02*
X87173000Y-85797000D01*
D27*
X105995000Y-80264000D02*
X106722000Y-80991000D01*
X105995000Y-79299000D02*
X105995000Y-80264000D01*
D29*
X105995000Y-79299000D02*
X106731000Y-79299000D01*
D26*
X85522000Y-86919000D02*
X85522000Y-87394000D01*
X83871000Y-90221000D02*
X84252000Y-89840000D01*
X84252000Y-89840000D02*
X85395006Y-89840000D01*
X85522000Y-87394000D02*
X85395006Y-87520994D01*
X85395006Y-87520994D02*
X85395006Y-89840000D01*
D27*
%TO.N,/sda0*%
X77521000Y-87554000D02*
X77140000Y-87554000D01*
X77140000Y-87554000D02*
X75997000Y-88697000D01*
D30*
%TO.N,Net-(K1-Pad8)*%
X96805010Y-98749990D02*
X97333000Y-98222000D01*
X90240990Y-98749990D02*
X96805010Y-98749990D01*
X89713000Y-98222000D02*
X90240990Y-98749990D01*
D27*
%TO.N,/I2C_SDA*%
X106722000Y-81641000D02*
X105840602Y-81641000D01*
X105840602Y-81641000D02*
X105615886Y-81416284D01*
X85903000Y-84822000D02*
X85903000Y-83236000D01*
%TO.N,/I2C_SCL*%
X106722000Y-82291000D02*
X105840706Y-82291000D01*
X105840706Y-82291000D02*
X105615814Y-82515892D01*
X84633000Y-84822000D02*
X84633000Y-83236000D01*
D31*
%TO.N,Net-(Q6-Pad1)*%
X107367000Y-77837500D02*
X107366000Y-77838500D01*
X107381990Y-76963490D02*
X107367000Y-76948500D01*
X112441000Y-76060500D02*
X111538010Y-76963490D01*
X107367000Y-76948500D02*
X107367000Y-77837500D01*
X111538010Y-76963490D02*
X107381990Y-76963490D01*
X107367000Y-75997000D02*
X107367000Y-76948500D01*
D27*
%TO.N,/K1_set*%
X101396992Y-81282992D02*
X101396992Y-80188000D01*
X101755000Y-81641000D02*
X101396992Y-81282992D01*
X102422000Y-81641000D02*
X101755000Y-81641000D01*
%TO.N,/K1_rst*%
X102422000Y-80991000D02*
X102422000Y-78674000D01*
X102422000Y-78674000D02*
X101269000Y-77521000D01*
%TO.N,/K2_set*%
X106722000Y-82941000D02*
X107833000Y-82941000D01*
%TO.N,/K2_rst*%
X109016000Y-78400000D02*
X108255000Y-79161000D01*
X109016000Y-77838500D02*
X109016000Y-78400000D01*
X102422000Y-82291000D02*
X103337155Y-82291000D01*
X103337155Y-82291000D02*
X103497423Y-82130732D01*
D25*
%TO.N,Net-(Q6-Pad3)*%
X112288500Y-78060500D02*
X113971000Y-76378000D01*
X111491000Y-78060500D02*
X112288500Y-78060500D01*
D30*
%TO.N,Net-(C5-Pad2)*%
X108382000Y-95682000D02*
X115113000Y-95682000D01*
X107239000Y-94539000D02*
X108382000Y-95682000D01*
X98730000Y-94539000D02*
X107239000Y-94539000D01*
X97333000Y-93142000D02*
X98730000Y-94539000D01*
X116510000Y-93142000D02*
X117907000Y-93142000D01*
X115113000Y-94539000D02*
X116510000Y-93142000D01*
X115113000Y-95682000D02*
X115113000Y-94539000D01*
X122225000Y-93142000D02*
X117907000Y-93142000D01*
X123749990Y-94666990D02*
X122225000Y-93142000D01*
X123749990Y-96036010D02*
X123749990Y-94666990D01*
X123241000Y-96545000D02*
X123749990Y-96036010D01*
D28*
%TO.N,Net-(C6-Pad2)*%
X83871000Y-92179000D02*
X83871000Y-94158000D01*
D30*
%TO.N,Net-(C7-Pad1)*%
X117907000Y-88062000D02*
X115367000Y-88062000D01*
X111811000Y-91618000D02*
X115367000Y-88062000D01*
X110287000Y-93142000D02*
X110287000Y-91618000D01*
X110287000Y-91618000D02*
X111811000Y-91618000D01*
X108763000Y-91618000D02*
X110287000Y-91618000D01*
X107747000Y-90602000D02*
X108763000Y-91618000D01*
X92253000Y-90602000D02*
X107747000Y-90602000D01*
X89713000Y-93142000D02*
X92253000Y-90602000D01*
X118034000Y-88062000D02*
X115748000Y-88062000D01*
X121336000Y-88062000D02*
X117907000Y-88062000D01*
X123749990Y-85648010D02*
X121336000Y-88062000D01*
X123749990Y-79553990D02*
X123749990Y-85648010D01*
X123241000Y-79045000D02*
X123749990Y-79553990D01*
D25*
%TO.N,Net-(C11-Pad2)*%
X117907000Y-78791000D02*
X117907000Y-80442000D01*
X118669000Y-78029000D02*
X117907000Y-78791000D01*
%TO.N,Net-(C12-Pad2)*%
X117018000Y-78156000D02*
X117145000Y-78029000D01*
X116637000Y-78537000D02*
X117145000Y-78029000D01*
X116637000Y-81712000D02*
X116637000Y-78537000D01*
X117907000Y-82982000D02*
X116637000Y-81712000D01*
%TO.N,Net-(C12-Pad1)*%
X117144000Y-76378000D02*
X117145000Y-76379000D01*
X115621000Y-76378000D02*
X117144000Y-76378000D01*
%TO.N,Net-(Q2-Pad3)*%
X95297500Y-77010500D02*
X94665000Y-76378000D01*
X96095000Y-77010500D02*
X95297500Y-77010500D01*
%TO.N,Net-(Q2-Pad1)*%
X99179500Y-77960500D02*
X99619000Y-77521000D01*
X98095000Y-77960500D02*
X99179500Y-77960500D01*
X99745000Y-77521000D02*
X101269000Y-75997000D01*
X99619000Y-77521000D02*
X99745000Y-77521000D01*
D27*
%TO.N,Net-(Q3-Pad2)*%
X85903000Y-80569000D02*
X85903000Y-79872000D01*
X82712990Y-83759010D02*
X85903000Y-80569000D01*
X82712990Y-84756010D02*
X82712990Y-83759010D01*
X81077000Y-86392000D02*
X82712990Y-84756010D01*
X81077000Y-86792000D02*
X81077000Y-86392000D01*
X80889000Y-86604000D02*
X81077000Y-86792000D01*
X79521000Y-86604000D02*
X80889000Y-86604000D01*
%TO.N,Net-(Q4-Pad2)*%
X82093000Y-83109000D02*
X81077000Y-83109000D01*
X84633000Y-80569000D02*
X82093000Y-83109000D01*
X84633000Y-79872000D02*
X84633000Y-80569000D01*
X80950000Y-82982000D02*
X81077000Y-83109000D01*
X79521000Y-82982000D02*
X80950000Y-82982000D01*
%TD*%
M02*
