M48
; DRILL file {KiCad (5.1.10)-1} date 01/20/22 19:58:12
; FORMAT={3:3/ absolute / metric / keep zeros}
; #@! TF.CreationDate,2022-01-20T19:58:12+07:00
; #@! TF.GenerationSoftware,Kicad,Pcbnew,(5.1.10)-1
; #@! TF.FileFunction,Plated,1,4,PTH
FMAT,2
METRIC
T1C0.400
T2C0.650
T3C0.700
T4C1.000
T5C1.075
T6C1.200
%
G90
G05
T1
X075997Y-087237
X075997Y-088697
X077521Y-083932
X081077Y-084760
X081077Y-088443
X083972Y-086919
X084480Y-077775
X084633Y-083236
X085903Y-083236
X089967Y-076378
X089967Y-078029
X091491Y-076378
X091491Y-078029
X098095Y-076061
X099619Y-075997
X101397Y-080188
X103497Y-082131
X104445Y-079299
X105616Y-082516
X105616Y-081416
X105995Y-079299
X107833Y-082941
X108255Y-079161
X109017Y-075997
X110541Y-076061
X117145Y-076378
X117145Y-078029
X118669Y-076378
X118669Y-078029
T2
X076251Y-079680
X076251Y-080950
X077521Y-079680
X077521Y-080950
X078791Y-079680
X078791Y-080950
T3
X083871Y-094158
X085395Y-089840
T4
X081141Y-091618
X089713Y-080442
X089713Y-082982
X089713Y-088062
X089713Y-093142
X089713Y-098222
X097333Y-080442
X097333Y-082982
X097333Y-088062
X097333Y-093142
X097333Y-098222
X101270Y-097968
X103810Y-097968
X106350Y-097968
X110287Y-080442
X110287Y-082982
X110287Y-088062
X110287Y-093142
X110287Y-098222
X117907Y-080442
X117907Y-082982
X117907Y-088062
X117907Y-093142
X117907Y-098222
T5
X077521Y-098349
X080061Y-098349
X082601Y-098349
X085141Y-098349
T6
X092613Y-095682
X115113Y-095682
X123241Y-079045
X123241Y-096545
T0
M30
