%TF.GenerationSoftware,KiCad,Pcbnew,(5.1.10)-1*%
%TF.CreationDate,2022-01-18T17:44:39+07:00*%
%TF.ProjectId,Fan_controller_v3,46616e5f-636f-46e7-9472-6f6c6c65725f,rev?*%
%TF.SameCoordinates,Original*%
%TF.FileFunction,Profile,NP*%
%FSLAX46Y46*%
G04 Gerber Fmt 4.6, Leading zero omitted, Abs format (unit mm)*
G04 Created by KiCad (PCBNEW (5.1.10)-1) date 2022-01-18 17:44:39*
%MOMM*%
%LPD*%
G01*
G04 APERTURE LIST*
%TA.AperFunction,Profile*%
%ADD10C,0.100000*%
%TD*%
G04 APERTURE END LIST*
D10*
X88443000Y-98349000D02*
G75*
G03*
X88443000Y-98349000I-1143000J0D01*
G01*
X88443000Y-93142000D02*
G75*
G03*
X88443000Y-93142000I-1143000J0D01*
G01*
X88443000Y-87935000D02*
G75*
G03*
X88443000Y-87935000I-1143000J0D01*
G01*
X88951000Y-84379000D02*
X90475000Y-84379000D01*
X90475000Y-84379000D02*
G75*
G02*
X90475000Y-86665000I0J-1143000D01*
G01*
X88951000Y-86665000D02*
G75*
G02*
X88951000Y-84379000I0J1143000D01*
G01*
X88951000Y-86665000D02*
X90475000Y-86665000D01*
X96571000Y-84379000D02*
X98095000Y-84379000D01*
X98095000Y-84379000D02*
G75*
G02*
X98095000Y-86665000I0J-1143000D01*
G01*
X96571000Y-86665000D02*
G75*
G02*
X96571000Y-84379000I0J1143000D01*
G01*
X96571000Y-86665000D02*
X98095000Y-86665000D01*
X111049000Y-84379000D02*
G75*
G02*
X111049000Y-86665000I0J-1143000D01*
G01*
X109525000Y-86665000D02*
G75*
G02*
X109525000Y-84379000I0J1143000D01*
G01*
X109525000Y-86665000D02*
X111049000Y-86665000D01*
X109525000Y-84379000D02*
X111049000Y-84379000D01*
X117145000Y-86665000D02*
X118669000Y-86665000D01*
X117145000Y-84379000D02*
X118669000Y-84379000D01*
X118669000Y-84379000D02*
G75*
G02*
X118669000Y-86665000I0J-1143000D01*
G01*
X117145000Y-86665000D02*
G75*
G02*
X117145000Y-84379000I0J1143000D01*
G01*
X119431000Y-80950000D02*
X119431000Y-77775000D01*
X121717000Y-77775000D02*
X121717000Y-80950000D01*
X121717000Y-80950000D02*
G75*
G02*
X119431000Y-80950000I-1143000J0D01*
G01*
X119431000Y-77775000D02*
G75*
G02*
X121717000Y-77775000I1143000J0D01*
G01*
X75000000Y-75000000D02*
X75000000Y-100000000D01*
X75000000Y-100000000D02*
X125000000Y-100000000D01*
X125000000Y-75000000D02*
X125000000Y-100000000D01*
X75000000Y-75000000D02*
X125000000Y-75000000D01*
M02*
