%TF.GenerationSoftware,KiCad,Pcbnew,(5.1.10)-1*%
%TF.CreationDate,2022-01-20T19:58:08+07:00*%
%TF.ProjectId,Fan_controller_v3,46616e5f-636f-46e7-9472-6f6c6c65725f,rev?*%
%TF.SameCoordinates,Original*%
%TF.FileFunction,Soldermask,Top*%
%TF.FilePolarity,Negative*%
%FSLAX46Y46*%
G04 Gerber Fmt 4.6, Leading zero omitted, Abs format (unit mm)*
G04 Created by KiCad (PCBNEW (5.1.10)-1) date 2022-01-20 19:58:08*
%MOMM*%
%LPD*%
G01*
G04 APERTURE LIST*
%ADD10O,2.290000X5.460000*%
%ADD11O,3.810000X2.290000*%
%ADD12C,2.000000*%
%ADD13O,1.000000X1.000000*%
%ADD14R,1.000000X1.000000*%
%ADD15R,0.800000X0.900000*%
%ADD16R,0.900000X0.800000*%
%ADD17R,1.600000X1.600000*%
%ADD18C,1.600000*%
%ADD19R,1.700000X1.700000*%
%ADD20O,1.700000X1.700000*%
%ADD21R,1.100000X0.400000*%
%ADD22O,1.750000X2.250000*%
%ADD23R,1.750000X2.250000*%
%ADD24C,0.020000*%
G04 APERTURE END LIST*
D10*
%TO.C,REF\u002A\u002A*%
X120701000Y-79362500D03*
%TD*%
D11*
%TO.C,REF\u002A\u002A*%
X117907000Y-85522000D03*
%TD*%
%TO.C,REF\u002A\u002A*%
X110287000Y-85522000D03*
%TD*%
%TO.C,REF\u002A\u002A*%
X97333000Y-85522000D03*
%TD*%
%TO.C,REF\u002A\u002A*%
X89776500Y-85522000D03*
%TD*%
D12*
%TO.C,REF\u002A\u002A*%
X87300000Y-87935000D03*
%TD*%
%TO.C,REF\u002A\u002A*%
X87300000Y-93142000D03*
%TD*%
%TO.C,REF\u002A\u002A*%
X87427000Y-98349000D03*
%TD*%
D13*
%TO.C,J2*%
X76251000Y-79680000D03*
X76251000Y-80950000D03*
X77521000Y-79680000D03*
X77521000Y-80950000D03*
X78791000Y-79680000D03*
D14*
X78791000Y-80950000D03*
%TD*%
D12*
%TO.C,C5*%
X115113000Y-95682000D03*
X92613000Y-95682000D03*
%TD*%
%TO.C,U1*%
G36*
G01*
X87023000Y-83847000D02*
X87323000Y-83847000D01*
G75*
G02*
X87473000Y-83997000I0J-150000D01*
G01*
X87473000Y-85647000D01*
G75*
G02*
X87323000Y-85797000I-150000J0D01*
G01*
X87023000Y-85797000D01*
G75*
G02*
X86873000Y-85647000I0J150000D01*
G01*
X86873000Y-83997000D01*
G75*
G02*
X87023000Y-83847000I150000J0D01*
G01*
G37*
G36*
G01*
X85753000Y-83847000D02*
X86053000Y-83847000D01*
G75*
G02*
X86203000Y-83997000I0J-150000D01*
G01*
X86203000Y-85647000D01*
G75*
G02*
X86053000Y-85797000I-150000J0D01*
G01*
X85753000Y-85797000D01*
G75*
G02*
X85603000Y-85647000I0J150000D01*
G01*
X85603000Y-83997000D01*
G75*
G02*
X85753000Y-83847000I150000J0D01*
G01*
G37*
G36*
G01*
X84483000Y-83847000D02*
X84783000Y-83847000D01*
G75*
G02*
X84933000Y-83997000I0J-150000D01*
G01*
X84933000Y-85647000D01*
G75*
G02*
X84783000Y-85797000I-150000J0D01*
G01*
X84483000Y-85797000D01*
G75*
G02*
X84333000Y-85647000I0J150000D01*
G01*
X84333000Y-83997000D01*
G75*
G02*
X84483000Y-83847000I150000J0D01*
G01*
G37*
G36*
G01*
X83213000Y-83847000D02*
X83513000Y-83847000D01*
G75*
G02*
X83663000Y-83997000I0J-150000D01*
G01*
X83663000Y-85647000D01*
G75*
G02*
X83513000Y-85797000I-150000J0D01*
G01*
X83213000Y-85797000D01*
G75*
G02*
X83063000Y-85647000I0J150000D01*
G01*
X83063000Y-83997000D01*
G75*
G02*
X83213000Y-83847000I150000J0D01*
G01*
G37*
G36*
G01*
X83213000Y-78897000D02*
X83513000Y-78897000D01*
G75*
G02*
X83663000Y-79047000I0J-150000D01*
G01*
X83663000Y-80697000D01*
G75*
G02*
X83513000Y-80847000I-150000J0D01*
G01*
X83213000Y-80847000D01*
G75*
G02*
X83063000Y-80697000I0J150000D01*
G01*
X83063000Y-79047000D01*
G75*
G02*
X83213000Y-78897000I150000J0D01*
G01*
G37*
G36*
G01*
X84483000Y-78897000D02*
X84783000Y-78897000D01*
G75*
G02*
X84933000Y-79047000I0J-150000D01*
G01*
X84933000Y-80697000D01*
G75*
G02*
X84783000Y-80847000I-150000J0D01*
G01*
X84483000Y-80847000D01*
G75*
G02*
X84333000Y-80697000I0J150000D01*
G01*
X84333000Y-79047000D01*
G75*
G02*
X84483000Y-78897000I150000J0D01*
G01*
G37*
G36*
G01*
X85753000Y-78897000D02*
X86053000Y-78897000D01*
G75*
G02*
X86203000Y-79047000I0J-150000D01*
G01*
X86203000Y-80697000D01*
G75*
G02*
X86053000Y-80847000I-150000J0D01*
G01*
X85753000Y-80847000D01*
G75*
G02*
X85603000Y-80697000I0J150000D01*
G01*
X85603000Y-79047000D01*
G75*
G02*
X85753000Y-78897000I150000J0D01*
G01*
G37*
G36*
G01*
X87023000Y-78897000D02*
X87323000Y-78897000D01*
G75*
G02*
X87473000Y-79047000I0J-150000D01*
G01*
X87473000Y-80697000D01*
G75*
G02*
X87323000Y-80847000I-150000J0D01*
G01*
X87023000Y-80847000D01*
G75*
G02*
X86873000Y-80697000I0J150000D01*
G01*
X86873000Y-79047000D01*
G75*
G02*
X87023000Y-78897000I150000J0D01*
G01*
G37*
%TD*%
%TO.C,R16*%
G36*
G01*
X108617000Y-76272000D02*
X108617000Y-75722000D01*
G75*
G02*
X108817000Y-75522000I200000J0D01*
G01*
X109217000Y-75522000D01*
G75*
G02*
X109417000Y-75722000I0J-200000D01*
G01*
X109417000Y-76272000D01*
G75*
G02*
X109217000Y-76472000I-200000J0D01*
G01*
X108817000Y-76472000D01*
G75*
G02*
X108617000Y-76272000I0J200000D01*
G01*
G37*
G36*
G01*
X106967000Y-76272000D02*
X106967000Y-75722000D01*
G75*
G02*
X107167000Y-75522000I200000J0D01*
G01*
X107567000Y-75522000D01*
G75*
G02*
X107767000Y-75722000I0J-200000D01*
G01*
X107767000Y-76272000D01*
G75*
G02*
X107567000Y-76472000I-200000J0D01*
G01*
X107167000Y-76472000D01*
G75*
G02*
X106967000Y-76272000I0J200000D01*
G01*
G37*
%TD*%
%TO.C,R14*%
G36*
G01*
X108616000Y-78113500D02*
X108616000Y-77563500D01*
G75*
G02*
X108816000Y-77363500I200000J0D01*
G01*
X109216000Y-77363500D01*
G75*
G02*
X109416000Y-77563500I0J-200000D01*
G01*
X109416000Y-78113500D01*
G75*
G02*
X109216000Y-78313500I-200000J0D01*
G01*
X108816000Y-78313500D01*
G75*
G02*
X108616000Y-78113500I0J200000D01*
G01*
G37*
G36*
G01*
X106966000Y-78113500D02*
X106966000Y-77563500D01*
G75*
G02*
X107166000Y-77363500I200000J0D01*
G01*
X107566000Y-77363500D01*
G75*
G02*
X107766000Y-77563500I0J-200000D01*
G01*
X107766000Y-78113500D01*
G75*
G02*
X107566000Y-78313500I-200000J0D01*
G01*
X107166000Y-78313500D01*
G75*
G02*
X106966000Y-78113500I0J200000D01*
G01*
G37*
%TD*%
%TO.C,R4*%
G36*
G01*
X100019000Y-75722000D02*
X100019000Y-76272000D01*
G75*
G02*
X99819000Y-76472000I-200000J0D01*
G01*
X99419000Y-76472000D01*
G75*
G02*
X99219000Y-76272000I0J200000D01*
G01*
X99219000Y-75722000D01*
G75*
G02*
X99419000Y-75522000I200000J0D01*
G01*
X99819000Y-75522000D01*
G75*
G02*
X100019000Y-75722000I0J-200000D01*
G01*
G37*
G36*
G01*
X101669000Y-75722000D02*
X101669000Y-76272000D01*
G75*
G02*
X101469000Y-76472000I-200000J0D01*
G01*
X101069000Y-76472000D01*
G75*
G02*
X100869000Y-76272000I0J200000D01*
G01*
X100869000Y-75722000D01*
G75*
G02*
X101069000Y-75522000I200000J0D01*
G01*
X101469000Y-75522000D01*
G75*
G02*
X101669000Y-75722000I0J-200000D01*
G01*
G37*
%TD*%
%TO.C,R2*%
G36*
G01*
X100869000Y-77796000D02*
X100869000Y-77246000D01*
G75*
G02*
X101069000Y-77046000I200000J0D01*
G01*
X101469000Y-77046000D01*
G75*
G02*
X101669000Y-77246000I0J-200000D01*
G01*
X101669000Y-77796000D01*
G75*
G02*
X101469000Y-77996000I-200000J0D01*
G01*
X101069000Y-77996000D01*
G75*
G02*
X100869000Y-77796000I0J200000D01*
G01*
G37*
G36*
G01*
X99219000Y-77796000D02*
X99219000Y-77246000D01*
G75*
G02*
X99419000Y-77046000I200000J0D01*
G01*
X99819000Y-77046000D01*
G75*
G02*
X100019000Y-77246000I0J-200000D01*
G01*
X100019000Y-77796000D01*
G75*
G02*
X99819000Y-77996000I-200000J0D01*
G01*
X99419000Y-77996000D01*
G75*
G02*
X99219000Y-77796000I0J200000D01*
G01*
G37*
%TD*%
D15*
%TO.C,Q6*%
X111491000Y-78060500D03*
X110541000Y-76060500D03*
X112441000Y-76060500D03*
%TD*%
D16*
%TO.C,Q2*%
X96095000Y-77010500D03*
X98095000Y-76060500D03*
X98095000Y-77960500D03*
%TD*%
%TO.C,C10*%
G36*
G01*
X85072000Y-87169000D02*
X85072000Y-86669000D01*
G75*
G02*
X85297000Y-86444000I225000J0D01*
G01*
X85747000Y-86444000D01*
G75*
G02*
X85972000Y-86669000I0J-225000D01*
G01*
X85972000Y-87169000D01*
G75*
G02*
X85747000Y-87394000I-225000J0D01*
G01*
X85297000Y-87394000D01*
G75*
G02*
X85072000Y-87169000I0J225000D01*
G01*
G37*
G36*
G01*
X83522000Y-87169000D02*
X83522000Y-86669000D01*
G75*
G02*
X83747000Y-86444000I225000J0D01*
G01*
X84197000Y-86444000D01*
G75*
G02*
X84422000Y-86669000I0J-225000D01*
G01*
X84422000Y-87169000D01*
G75*
G02*
X84197000Y-87394000I-225000J0D01*
G01*
X83747000Y-87394000D01*
G75*
G02*
X83522000Y-87169000I0J225000D01*
G01*
G37*
%TD*%
%TO.C,C8*%
G36*
G01*
X85580000Y-78025000D02*
X85580000Y-77525000D01*
G75*
G02*
X85805000Y-77300000I225000J0D01*
G01*
X86255000Y-77300000D01*
G75*
G02*
X86480000Y-77525000I0J-225000D01*
G01*
X86480000Y-78025000D01*
G75*
G02*
X86255000Y-78250000I-225000J0D01*
G01*
X85805000Y-78250000D01*
G75*
G02*
X85580000Y-78025000I0J225000D01*
G01*
G37*
G36*
G01*
X84030000Y-78025000D02*
X84030000Y-77525000D01*
G75*
G02*
X84255000Y-77300000I225000J0D01*
G01*
X84705000Y-77300000D01*
G75*
G02*
X84930000Y-77525000I0J-225000D01*
G01*
X84930000Y-78025000D01*
G75*
G02*
X84705000Y-78250000I-225000J0D01*
G01*
X84255000Y-78250000D01*
G75*
G02*
X84030000Y-78025000I0J225000D01*
G01*
G37*
%TD*%
D17*
%TO.C,K2*%
X110287000Y-80442000D03*
D18*
X110287000Y-82982000D03*
X110287000Y-88062000D03*
X110287000Y-93142000D03*
X110287000Y-98222000D03*
X117907000Y-98222000D03*
X117907000Y-93142000D03*
X117907000Y-88062000D03*
X117907000Y-82982000D03*
X117907000Y-80442000D03*
%TD*%
D19*
%TO.C,J1*%
X101270000Y-97968000D03*
D20*
X103810000Y-97968000D03*
X106350000Y-97968000D03*
%TD*%
D21*
%TO.C,U2*%
X106722000Y-80991000D03*
X106722000Y-81641000D03*
X106722000Y-82291000D03*
X106722000Y-82941000D03*
X102422000Y-82941000D03*
X102422000Y-82291000D03*
X102422000Y-81641000D03*
X102422000Y-80991000D03*
%TD*%
D12*
%TO.C,TP1*%
X81140500Y-91618000D03*
%TD*%
%TO.C,R12*%
G36*
G01*
X80802000Y-84359000D02*
X81352000Y-84359000D01*
G75*
G02*
X81552000Y-84559000I0J-200000D01*
G01*
X81552000Y-84959000D01*
G75*
G02*
X81352000Y-85159000I-200000J0D01*
G01*
X80802000Y-85159000D01*
G75*
G02*
X80602000Y-84959000I0J200000D01*
G01*
X80602000Y-84559000D01*
G75*
G02*
X80802000Y-84359000I200000J0D01*
G01*
G37*
G36*
G01*
X80802000Y-82709000D02*
X81352000Y-82709000D01*
G75*
G02*
X81552000Y-82909000I0J-200000D01*
G01*
X81552000Y-83309000D01*
G75*
G02*
X81352000Y-83509000I-200000J0D01*
G01*
X80802000Y-83509000D01*
G75*
G02*
X80602000Y-83309000I0J200000D01*
G01*
X80602000Y-82909000D01*
G75*
G02*
X80802000Y-82709000I200000J0D01*
G01*
G37*
%TD*%
%TO.C,R11*%
G36*
G01*
X80802000Y-88042000D02*
X81352000Y-88042000D01*
G75*
G02*
X81552000Y-88242000I0J-200000D01*
G01*
X81552000Y-88642000D01*
G75*
G02*
X81352000Y-88842000I-200000J0D01*
G01*
X80802000Y-88842000D01*
G75*
G02*
X80602000Y-88642000I0J200000D01*
G01*
X80602000Y-88242000D01*
G75*
G02*
X80802000Y-88042000I200000J0D01*
G01*
G37*
G36*
G01*
X80802000Y-86392000D02*
X81352000Y-86392000D01*
G75*
G02*
X81552000Y-86592000I0J-200000D01*
G01*
X81552000Y-86992000D01*
G75*
G02*
X81352000Y-87192000I-200000J0D01*
G01*
X80802000Y-87192000D01*
G75*
G02*
X80602000Y-86992000I0J200000D01*
G01*
X80602000Y-86592000D01*
G75*
G02*
X80802000Y-86392000I200000J0D01*
G01*
G37*
%TD*%
%TO.C,R8*%
G36*
G01*
X76272000Y-85986500D02*
X75722000Y-85986500D01*
G75*
G02*
X75522000Y-85786500I0J200000D01*
G01*
X75522000Y-85386500D01*
G75*
G02*
X75722000Y-85186500I200000J0D01*
G01*
X76272000Y-85186500D01*
G75*
G02*
X76472000Y-85386500I0J-200000D01*
G01*
X76472000Y-85786500D01*
G75*
G02*
X76272000Y-85986500I-200000J0D01*
G01*
G37*
G36*
G01*
X76272000Y-87636500D02*
X75722000Y-87636500D01*
G75*
G02*
X75522000Y-87436500I0J200000D01*
G01*
X75522000Y-87036500D01*
G75*
G02*
X75722000Y-86836500I200000J0D01*
G01*
X76272000Y-86836500D01*
G75*
G02*
X76472000Y-87036500I0J-200000D01*
G01*
X76472000Y-87436500D01*
G75*
G02*
X76272000Y-87636500I-200000J0D01*
G01*
G37*
%TD*%
%TO.C,R7*%
G36*
G01*
X75722000Y-89947000D02*
X76272000Y-89947000D01*
G75*
G02*
X76472000Y-90147000I0J-200000D01*
G01*
X76472000Y-90547000D01*
G75*
G02*
X76272000Y-90747000I-200000J0D01*
G01*
X75722000Y-90747000D01*
G75*
G02*
X75522000Y-90547000I0J200000D01*
G01*
X75522000Y-90147000D01*
G75*
G02*
X75722000Y-89947000I200000J0D01*
G01*
G37*
G36*
G01*
X75722000Y-88297000D02*
X76272000Y-88297000D01*
G75*
G02*
X76472000Y-88497000I0J-200000D01*
G01*
X76472000Y-88897000D01*
G75*
G02*
X76272000Y-89097000I-200000J0D01*
G01*
X75722000Y-89097000D01*
G75*
G02*
X75522000Y-88897000I0J200000D01*
G01*
X75522000Y-88497000D01*
G75*
G02*
X75722000Y-88297000I200000J0D01*
G01*
G37*
%TD*%
%TO.C,R20*%
G36*
G01*
X116870000Y-77629000D02*
X117420000Y-77629000D01*
G75*
G02*
X117620000Y-77829000I0J-200000D01*
G01*
X117620000Y-78229000D01*
G75*
G02*
X117420000Y-78429000I-200000J0D01*
G01*
X116870000Y-78429000D01*
G75*
G02*
X116670000Y-78229000I0J200000D01*
G01*
X116670000Y-77829000D01*
G75*
G02*
X116870000Y-77629000I200000J0D01*
G01*
G37*
G36*
G01*
X116870000Y-75979000D02*
X117420000Y-75979000D01*
G75*
G02*
X117620000Y-76179000I0J-200000D01*
G01*
X117620000Y-76579000D01*
G75*
G02*
X117420000Y-76779000I-200000J0D01*
G01*
X116870000Y-76779000D01*
G75*
G02*
X116670000Y-76579000I0J200000D01*
G01*
X116670000Y-76179000D01*
G75*
G02*
X116870000Y-75979000I200000J0D01*
G01*
G37*
%TD*%
%TO.C,R19*%
G36*
G01*
X118394000Y-77629000D02*
X118944000Y-77629000D01*
G75*
G02*
X119144000Y-77829000I0J-200000D01*
G01*
X119144000Y-78229000D01*
G75*
G02*
X118944000Y-78429000I-200000J0D01*
G01*
X118394000Y-78429000D01*
G75*
G02*
X118194000Y-78229000I0J200000D01*
G01*
X118194000Y-77829000D01*
G75*
G02*
X118394000Y-77629000I200000J0D01*
G01*
G37*
G36*
G01*
X118394000Y-75979000D02*
X118944000Y-75979000D01*
G75*
G02*
X119144000Y-76179000I0J-200000D01*
G01*
X119144000Y-76579000D01*
G75*
G02*
X118944000Y-76779000I-200000J0D01*
G01*
X118394000Y-76779000D01*
G75*
G02*
X118194000Y-76579000I0J200000D01*
G01*
X118194000Y-76179000D01*
G75*
G02*
X118394000Y-75979000I200000J0D01*
G01*
G37*
%TD*%
%TO.C,R10*%
G36*
G01*
X89692000Y-77629000D02*
X90242000Y-77629000D01*
G75*
G02*
X90442000Y-77829000I0J-200000D01*
G01*
X90442000Y-78229000D01*
G75*
G02*
X90242000Y-78429000I-200000J0D01*
G01*
X89692000Y-78429000D01*
G75*
G02*
X89492000Y-78229000I0J200000D01*
G01*
X89492000Y-77829000D01*
G75*
G02*
X89692000Y-77629000I200000J0D01*
G01*
G37*
G36*
G01*
X89692000Y-75979000D02*
X90242000Y-75979000D01*
G75*
G02*
X90442000Y-76179000I0J-200000D01*
G01*
X90442000Y-76579000D01*
G75*
G02*
X90242000Y-76779000I-200000J0D01*
G01*
X89692000Y-76779000D01*
G75*
G02*
X89492000Y-76579000I0J200000D01*
G01*
X89492000Y-76179000D01*
G75*
G02*
X89692000Y-75979000I200000J0D01*
G01*
G37*
%TD*%
%TO.C,R9*%
G36*
G01*
X91216000Y-77629000D02*
X91766000Y-77629000D01*
G75*
G02*
X91966000Y-77829000I0J-200000D01*
G01*
X91966000Y-78229000D01*
G75*
G02*
X91766000Y-78429000I-200000J0D01*
G01*
X91216000Y-78429000D01*
G75*
G02*
X91016000Y-78229000I0J200000D01*
G01*
X91016000Y-77829000D01*
G75*
G02*
X91216000Y-77629000I200000J0D01*
G01*
G37*
G36*
G01*
X91216000Y-75979000D02*
X91766000Y-75979000D01*
G75*
G02*
X91966000Y-76179000I0J-200000D01*
G01*
X91966000Y-76579000D01*
G75*
G02*
X91766000Y-76779000I-200000J0D01*
G01*
X91216000Y-76779000D01*
G75*
G02*
X91016000Y-76579000I0J200000D01*
G01*
X91016000Y-76179000D01*
G75*
G02*
X91216000Y-75979000I200000J0D01*
G01*
G37*
%TD*%
%TO.C,R18*%
G36*
G01*
X115221000Y-76653000D02*
X115221000Y-76103000D01*
G75*
G02*
X115421000Y-75903000I200000J0D01*
G01*
X115821000Y-75903000D01*
G75*
G02*
X116021000Y-76103000I0J-200000D01*
G01*
X116021000Y-76653000D01*
G75*
G02*
X115821000Y-76853000I-200000J0D01*
G01*
X115421000Y-76853000D01*
G75*
G02*
X115221000Y-76653000I0J200000D01*
G01*
G37*
G36*
G01*
X113571000Y-76653000D02*
X113571000Y-76103000D01*
G75*
G02*
X113771000Y-75903000I200000J0D01*
G01*
X114171000Y-75903000D01*
G75*
G02*
X114371000Y-76103000I0J-200000D01*
G01*
X114371000Y-76653000D01*
G75*
G02*
X114171000Y-76853000I-200000J0D01*
G01*
X113771000Y-76853000D01*
G75*
G02*
X113571000Y-76653000I0J200000D01*
G01*
G37*
%TD*%
%TO.C,R6*%
G36*
G01*
X93415000Y-76103000D02*
X93415000Y-76653000D01*
G75*
G02*
X93215000Y-76853000I-200000J0D01*
G01*
X92815000Y-76853000D01*
G75*
G02*
X92615000Y-76653000I0J200000D01*
G01*
X92615000Y-76103000D01*
G75*
G02*
X92815000Y-75903000I200000J0D01*
G01*
X93215000Y-75903000D01*
G75*
G02*
X93415000Y-76103000I0J-200000D01*
G01*
G37*
G36*
G01*
X95065000Y-76103000D02*
X95065000Y-76653000D01*
G75*
G02*
X94865000Y-76853000I-200000J0D01*
G01*
X94465000Y-76853000D01*
G75*
G02*
X94265000Y-76653000I0J200000D01*
G01*
X94265000Y-76103000D01*
G75*
G02*
X94465000Y-75903000I200000J0D01*
G01*
X94865000Y-75903000D01*
G75*
G02*
X95065000Y-76103000I0J-200000D01*
G01*
G37*
%TD*%
D16*
%TO.C,Q4*%
X77521000Y-83932000D03*
X79521000Y-82982000D03*
X79521000Y-84882000D03*
%TD*%
%TO.C,Q3*%
X77521000Y-87554000D03*
X79521000Y-86604000D03*
X79521000Y-88504000D03*
%TD*%
D22*
%TO.C,PS1*%
X85141000Y-98349000D03*
X82601000Y-98349000D03*
X80061000Y-98349000D03*
D23*
X77521000Y-98349000D03*
%TD*%
D18*
%TO.C,K1*%
X97333000Y-80442000D03*
X97333000Y-82982000D03*
X97333000Y-88062000D03*
X97333000Y-93142000D03*
X97333000Y-98222000D03*
X89713000Y-98222000D03*
X89713000Y-93142000D03*
X89713000Y-88062000D03*
X89713000Y-82982000D03*
D17*
X89713000Y-80442000D03*
%TD*%
D24*
%TO.C,JP1*%
G36*
X83871000Y-91179000D02*
G01*
X84621000Y-91679000D01*
X84621000Y-92679000D01*
X83121000Y-92679000D01*
X83121000Y-91679000D01*
X83871000Y-91179000D01*
G37*
G36*
X84621000Y-90229000D02*
G01*
X84621000Y-91379000D01*
X83871000Y-90879000D01*
X83121000Y-91379000D01*
X83121000Y-90229000D01*
X84621000Y-90229000D01*
G37*
%TD*%
D12*
%TO.C,C7*%
X123241000Y-96545000D03*
X123241000Y-79045000D03*
%TD*%
%TO.C,C13*%
G36*
G01*
X104895000Y-79049000D02*
X104895000Y-79549000D01*
G75*
G02*
X104670000Y-79774000I-225000J0D01*
G01*
X104220000Y-79774000D01*
G75*
G02*
X103995000Y-79549000I0J225000D01*
G01*
X103995000Y-79049000D01*
G75*
G02*
X104220000Y-78824000I225000J0D01*
G01*
X104670000Y-78824000D01*
G75*
G02*
X104895000Y-79049000I0J-225000D01*
G01*
G37*
G36*
G01*
X106445000Y-79049000D02*
X106445000Y-79549000D01*
G75*
G02*
X106220000Y-79774000I-225000J0D01*
G01*
X105770000Y-79774000D01*
G75*
G02*
X105545000Y-79549000I0J225000D01*
G01*
X105545000Y-79049000D01*
G75*
G02*
X105770000Y-78824000I225000J0D01*
G01*
X106220000Y-78824000D01*
G75*
G02*
X106445000Y-79049000I0J-225000D01*
G01*
G37*
%TD*%
M02*
